<svg xmlns="http://www.w3.org/2000/svg" width="1200" height="210" viewBox="0 0 1200 210" role="img" aria-label="A boundary line at the center of the contribution graph, pulsing waves of light to both sides"><defs><filter id="fglow" x="-60%" y="-30%" width="220%" height="160%"><feGaussianBlur stdDeviation="4"/></filter><filter id="bglow" x="-300%" y="-30%" width="700%" height="160%"><feGaussianBlur stdDeviation="3.5"/></filter></defs><style>.c{animation-duration:6s;animation-iteration-count:infinite;animation-timing-function:ease-in-out}.front{animation:6s linear infinite}.frontR{animation-name:sweepR}.frontL{animation-name:sweepL}.boundary{animation:bpulse 6s ease-in-out infinite}.node{animation:nslide 3s ease-in-out infinite alternate}.d0{animation-name:w0}.d1{animation-name:w1}.d2{animation-name:w2}.d3{animation-name:w3}.d4{animation-name:w4}.d5{animation-name:w5}.d6{animation-name:w6}.d7{animation-name:w7}.d8{animation-name:w8}.d9{animation-name:w9}.d10{animation-name:w10}.d11{animation-name:w11}.d12{animation-name:w12}.d13{animation-name:w13}.d14{animation-name:w14}.d15{animation-name:w15}.d16{animation-name:w16}.d17{animation-name:w17}.d18{animation-name:w18}.d19{animation-name:w19}.d20{animation-name:w20}.d21{animation-name:w21}.d22{animation-name:w22}.d23{animation-name:w23}.d24{animation-name:w24}.d25{animation-name:w25}.d26{animation-name:w26}@keyframes w0{0%{opacity:.45}0.0%{opacity:.45}6.0%{opacity:1}13.0%{opacity:.45}100%{opacity:.45}}@keyframes w1{0%{opacity:.45}1.6%{opacity:.45}8.6%{opacity:1}15.6%{opacity:.45}100%{opacity:.45}}@keyframes w2{0%{opacity:.45}4.2%{opacity:.45}11.2%{opacity:1}18.2%{opacity:.45}100%{opacity:.45}}@keyframes w3{0%{opacity:.45}6.8%{opacity:.45}13.8%{opacity:1}20.8%{opacity:.45}100%{opacity:.45}}@keyframes w4{0%{opacity:.45}9.5%{opacity:.45}16.5%{opacity:1}23.5%{opacity:.45}100%{opacity:.45}}@keyframes w5{0%{opacity:.45}12.1%{opacity:.45}19.1%{opacity:1}26.1%{opacity:.45}100%{opacity:.45}}@keyframes w6{0%{opacity:.45}14.7%{opacity:.45}21.7%{opacity:1}28.7%{opacity:.45}100%{opacity:.45}}@keyframes w7{0%{opacity:.45}17.3%{opacity:.45}24.3%{opacity:1}31.3%{opacity:.45}100%{opacity:.45}}@keyframes w8{0%{opacity:.45}19.9%{opacity:.45}26.9%{opacity:1}33.9%{opacity:.45}100%{opacity:.45}}@keyframes w9{0%{opacity:.45}22.5%{opacity:.45}29.5%{opacity:1}36.5%{opacity:.45}100%{opacity:.45}}@keyframes w10{0%{opacity:.45}25.2%{opacity:.45}32.2%{opacity:1}39.2%{opacity:.45}100%{opacity:.45}}@keyframes w11{0%{opacity:.45}27.8%{opacity:.45}34.8%{opacity:1}41.8%{opacity:.45}100%{opacity:.45}}@keyframes w12{0%{opacity:.45}30.4%{opacity:.45}37.4%{opacity:1}44.4%{opacity:.45}100%{opacity:.45}}@keyframes w13{0%{opacity:.45}33.0%{opacity:.45}40.0%{opacity:1}47.0%{opacity:.45}100%{opacity:.45}}@keyframes w14{0%{opacity:.45}35.6%{opacity:.45}42.6%{opacity:1}49.6%{opacity:.45}100%{opacity:.45}}@keyframes w15{0%{opacity:.45}38.2%{opacity:.45}45.2%{opacity:1}52.2%{opacity:.45}100%{opacity:.45}}@keyframes w16{0%{opacity:.45}40.8%{opacity:.45}47.8%{opacity:1}54.8%{opacity:.45}100%{opacity:.45}}@keyframes w17{0%{opacity:.45}43.5%{opacity:.45}50.5%{opacity:1}57.5%{opacity:.45}100%{opacity:.45}}@keyframes w18{0%{opacity:.45}46.1%{opacity:.45}53.1%{opacity:1}60.1%{opacity:.45}100%{opacity:.45}}@keyframes w19{0%{opacity:.45}48.7%{opacity:.45}55.7%{opacity:1}62.7%{opacity:.45}100%{opacity:.45}}@keyframes w20{0%{opacity:.45}51.3%{opacity:.45}58.3%{opacity:1}65.3%{opacity:.45}100%{opacity:.45}}@keyframes w21{0%{opacity:.45}53.9%{opacity:.45}60.9%{opacity:1}67.9%{opacity:.45}100%{opacity:.45}}@keyframes w22{0%{opacity:.45}56.5%{opacity:.45}63.5%{opacity:1}70.5%{opacity:.45}100%{opacity:.45}}@keyframes w23{0%{opacity:.45}59.2%{opacity:.45}66.2%{opacity:1}73.2%{opacity:.45}100%{opacity:.45}}@keyframes w24{0%{opacity:.45}61.8%{opacity:.45}68.8%{opacity:1}75.8%{opacity:.45}100%{opacity:.45}}@keyframes w25{0%{opacity:.45}64.4%{opacity:.45}71.4%{opacity:1}78.4%{opacity:.45}100%{opacity:.45}}@keyframes w26{0%{opacity:.45}67.0%{opacity:.45}74.0%{opacity:1}81.0%{opacity:.45}100%{opacity:.45}}@keyframes sweepR{0%{transform:translateX(0);opacity:0}5%{opacity:.85}74%{transform:translateX(510px);opacity:.6}79%{transform:translateX(524px);opacity:0}100%{transform:translateX(0);opacity:0}}@keyframes sweepL{0%{transform:translateX(0);opacity:0}5%{opacity:.85}74%{transform:translateX(-510px);opacity:.6}79%{transform:translateX(-524px);opacity:0}100%{transform:translateX(0);opacity:0}}@keyframes bpulse{0%{opacity:.5}4%{opacity:1}16%{opacity:.6}100%{opacity:.5}}@keyframes nslide{0%{transform:translateY(0)}100%{transform:translateY(145px)}}</style><rect width="1200" height="210" fill="#0d1117"/><g><rect class="c d26" x="98" y="48" width="15" height="15" rx="3" fill="#161b22"/><rect class="c d26" x="98" y="67" width="15" height="15" rx="3" fill="#161b22"/><rect class="c d26" x="98" y="86" width="15" height="15" rx="3" fill="#161b22"/><rect class="c d26" x="98" y="105" width="15" height="15" rx="3" fill="#161b22"/><rect class="c d26" x="98" y="124" width="15" height="15" rx="3" fill="#161b22"/><rect class="c d26" x="98" y="143" width="15" height="15" rx="3" fill="#161b22"/><rect class="c d26" x="98" y="162" width="15" height="15" rx="3" fill="#161b22"/><rect class="c d25" x="117" y="48" width="15" height="15" rx="3" fill="#161b22"/><rect class="c d25" x="117" y="67" width="15" height="15" rx="3" fill="#161b22"/><rect class="c d25" x="117" y="86" width="15" height="15" rx="3" fill="#161b22"/><rect class="c d25" x="117" y="105" width="15" height="15" rx="3" fill="#161b22"/><rect class="c d25" x="117" y="124" width="15" height="15" rx="3" fill="#161b22"/><rect class="c d25" x="117" y="143" width="15" height="15" rx="3" fill="#161b22"/><rect class="c d25" x="117" y="162" width="15" height="15" rx="3" fill="#161b22"/><rect class="c d24" x="136" y="48" width="15" height="15" rx="3" fill="#161b22"/><rect class="c d24" x="136" y="67" width="15" height="15" rx="3" fill="#161b22"/><rect class="c d24" x="136" y="86" width="15" height="15" rx="3" fill="#161b22"/><rect class="c d24" x="136" y="105" width="15" height="15" rx="3" fill="#161b22"/><rect class="c d24" x="136" y="124" width="15" height="15" rx="3" fill="#161b22"/><rect class="c d24" x="136" y="143" width="15" height="15" rx="3" fill="#161b22"/><rect class="c d24" x="136" y="162" width="15" height="15" rx="3" fill="#161b22"/><rect class="c d23" x="155" y="48" width="15" height="15" rx="3" fill="#161b22"/><rect class="c d23" x="155" y="67" width="15" height="15" rx="3" fill="#161b22"/><rect class="c d23" x="155" y="86" width="15" height="15" rx="3" fill="#161b22"/><rect class="c d23" x="155" y="105" width="15" height="15" rx="3" fill="#161b22"/><rect class="c d23" x="155" y="124" width="15" height="15" rx="3" fill="#161b22"/><rect class="c d23" x="155" y="143" width="15" height="15" rx="3" fill="#161b22"/><rect class="c d23" x="155" y="162" width="15" height="15" rx="3" fill="#161b22"/><rect class="c d22" x="174" y="48" width="15" height="15" rx="3" fill="#161b22"/><rect class="c d22" x="174" y="67" width="15" height="15" rx="3" fill="#161b22"/><rect class="c d22" x="174" y="86" width="15" height="15" rx="3" fill="#161b22"/><rect class="c d22" x="174" y="105" width="15" height="15" rx="3" fill="#161b22"/><rect class="c d22" x="174" y="124" width="15" height="15" rx="3" fill="#161b22"/><rect class="c d22" x="174" y="143" width="15" height="15" rx="3" fill="#161b22"/><rect class="c d22" x="174" y="162" width="15" height="15" rx="3" fill="#161b22"/><rect class="c d21" x="193" y="48" width="15" height="15" rx="3" fill="#161b22"/><rect class="c d21" x="193" y="67" width="15" height="15" rx="3" fill="#161b22"/><rect class="c d21" x="193" y="86" width="15" height="15" rx="3" fill="#161b22"/><rect class="c d21" x="193" y="105" width="15" height="15" rx="3" fill="#161b22"/><rect class="c d21" x="193" y="124" width="15" height="15" rx="3" fill="#161b22"/><rect class="c d21" x="193" y="143" width="15" height="15" rx="3" fill="#161b22"/><rect class="c d21" x="193" y="162" width="15" height="15" rx="3" fill="#161b22"/><rect class="c d20" x="212" y="48" width="15" height="15" rx="3" fill="#161b22"/><rect class="c d20" x="212" y="67" width="15" height="15" rx="3" fill="#161b22"/><rect class="c d20" x="212" y="86" width="15" height="15" rx="3" fill="#161b22"/><rect class="c d20" x="212" y="105" width="15" height="15" rx="3" fill="#161b22"/><rect class="c d20" x="212" y="124" width="15" height="15" rx="3" fill="#161b22"/><rect class="c d20" x="212" y="143" width="15" height="15" rx="3" fill="#161b22"/><rect class="c d20" x="212" y="162" width="15" height="15" rx="3" fill="#161b22"/><rect class="c d19" x="231" y="48" width="15" height="15" rx="3" fill="#161b22"/><rect class="c d19" x="231" y="67" width="15" height="15" rx="3" fill="#161b22"/><rect class="c d19" x="231" y="86" width="15" height="15" rx="3" fill="#161b22"/><rect class="c d19" x="231" y="105" width="15" height="15" rx="3" fill="#161b22"/><rect class="c d19" x="231" y="124" width="15" height="15" rx="3" fill="#161b22"/><rect class="c d19" x="231" y="143" width="15" height="15" rx="3" fill="#161b22"/><rect class="c d19" x="231" y="162" width="15" height="15" rx="3" fill="#161b22"/><rect class="c d18" x="250" y="48" width="15" height="15" rx="3" fill="#0e4429"/><rect class="c d18" x="250" y="67" width="15" height="15" rx="3" fill="#161b22"/><rect class="c d18" x="250" y="86" width="15" height="15" rx="3" fill="#161b22"/><rect class="c d18" x="250" y="105" width="15" height="15" rx="3" fill="#161b22"/><rect class="c d18" x="250" y="124" width="15" height="15" rx="3" fill="#161b22"/><rect class="c d18" x="250" y="143" width="15" height="15" rx="3" fill="#161b22"/><rect class="c d18" x="250" y="162" width="15" height="15" rx="3" fill="#161b22"/><rect class="c d17" x="269" y="48" width="15" height="15" rx="3" fill="#161b22"/><rect class="c d17" x="269" y="67" width="15" height="15" rx="3" fill="#161b22"/><rect class="c d17" x="269" y="86" width="15" height="15" rx="3" fill="#161b22"/><rect class="c d17" x="269" y="105" width="15" height="15" rx="3" fill="#161b22"/><rect class="c d17" x="269" y="124" width="15" height="15" rx="3" fill="#161b22"/><rect class="c d17" x="269" y="143" width="15" height="15" rx="3" fill="#161b22"/><rect class="c d17" x="269" y="162" width="15" height="15" rx="3" fill="#161b22"/><rect class="c d16" x="288" y="48" width="15" height="15" rx="3" fill="#161b22"/><rect class="c d16" x="288" y="67" width="15" height="15" rx="3" fill="#161b22"/><rect class="c d16" x="288" y="86" width="15" height="15" rx="3" fill="#161b22"/><rect class="c d16" x="288" y="105" width="15" height="15" rx="3" fill="#161b22"/><rect class="c d16" x="288" y="124" width="15" height="15" rx="3" fill="#161b22"/><rect class="c d16" x="288" y="143" width="15" height="15" rx="3" fill="#161b22"/><rect class="c d16" x="288" y="162" width="15" height="15" rx="3" fill="#161b22"/><rect class="c d15" x="307" y="48" width="15" height="15" rx="3" fill="#161b22"/><rect class="c d15" x="307" y="67" width="15" height="15" rx="3" fill="#161b22"/><rect class="c d15" x="307" y="86" width="15" height="15" rx="3" fill="#161b22"/><rect class="c d15" x="307" y="105" width="15" height="15" rx="3" fill="#161b22"/><rect class="c d15" x="307" y="124" width="15" height="15" rx="3" fill="#161b22"/><rect class="c d15" x="307" y="143" width="15" height="15" rx="3" fill="#161b22"/><rect class="c d15" x="307" y="162" width="15" height="15" rx="3" fill="#161b22"/><rect class="c d14" x="326" y="48" width="15" height="15" rx="3" fill="#161b22"/><rect class="c d14" x="326" y="67" width="15" height="15" rx="3" fill="#161b22"/><rect class="c d14" x="326" y="86" width="15" height="15" rx="3" fill="#161b22"/><rect class="c d14" x="326" y="105" width="15" height="15" rx="3" fill="#161b22"/><rect class="c d14" x="326" y="124" width="15" height="15" rx="3" fill="#161b22"/><rect class="c d14" x="326" y="143" width="15" height="15" rx="3" fill="#161b22"/><rect class="c d14" x="326" y="162" width="15" height="15" rx="3" fill="#161b22"/><rect class="c d13" x="345" y="48" width="15" height="15" rx="3" fill="#161b22"/><rect class="c d13" x="345" y="67" width="15" height="15" rx="3" fill="#161b22"/><rect class="c d13" x="345" y="86" width="15" height="15" rx="3" fill="#161b22"/><rect class="c d13" x="345" y="105" width="15" height="15" rx="3" fill="#161b22"/><rect class="c d13" x="345" y="124" width="15" height="15" rx="3" fill="#161b22"/><rect class="c d13" x="345" y="143" width="15" height="15" rx="3" fill="#161b22"/><rect class="c d13" x="345" y="162" width="15" height="15" rx="3" fill="#161b22"/><rect class="c d12" x="364" y="48" width="15" height="15" rx="3" fill="#161b22"/><rect class="c d12" x="364" y="67" width="15" height="15" rx="3" fill="#161b22"/><rect class="c d12" x="364" y="86" width="15" height="15" rx="3" fill="#161b22"/><rect class="c d12" x="364" y="105" width="15" height="15" rx="3" fill="#161b22"/><rect class="c d12" x="364" y="124" width="15" height="15" rx="3" fill="#161b22"/><rect class="c d12" x="364" y="143" width="15" height="15" rx="3" fill="#161b22"/><rect class="c d12" x="364" y="162" width="15" height="15" rx="3" fill="#161b22"/><rect class="c d11" x="383" y="48" width="15" height="15" rx="3" fill="#161b22"/><rect class="c d11" x="383" y="67" width="15" height="15" rx="3" fill="#161b22"/><rect class="c d11" x="383" y="86" width="15" height="15" rx="3" fill="#161b22"/><rect class="c d11" x="383" y="105" width="15" height="15" rx="3" fill="#161b22"/><rect class="c d11" x="383" y="124" width="15" height="15" rx="3" fill="#161b22"/><rect class="c d11" x="383" y="143" width="15" height="15" rx="3" fill="#161b22"/><rect class="c d11" x="383" y="162" width="15" height="15" rx="3" fill="#161b22"/><rect class="c d10" x="402" y="48" width="15" height="15" rx="3" fill="#161b22"/><rect class="c d10" x="402" y="67" width="15" height="15" rx="3" fill="#161b22"/><rect class="c d10" x="402" y="86" width="15" height="15" rx="3" fill="#161b22"/><rect class="c d10" x="402" y="105" width="15" height="15" rx="3" fill="#161b22"/><rect class="c d10" x="402" y="124" width="15" height="15" rx="3" fill="#161b22"/><rect class="c d10" x="402" y="143" width="15" height="15" rx="3" fill="#161b22"/><rect class="c d10" x="402" y="162" width="15" height="15" rx="3" fill="#161b22"/><rect class="c d9" x="421" y="48" width="15" height="15" rx="3" fill="#161b22"/><rect class="c d9" x="421" y="67" width="15" height="15" rx="3" fill="#161b22"/><rect class="c d9" x="421" y="86" width="15" height="15" rx="3" fill="#161b22"/><rect class="c d9" x="421" y="105" width="15" height="15" rx="3" fill="#161b22"/><rect class="c d9" x="421" y="124" width="15" height="15" rx="3" fill="#161b22"/><rect class="c d9" x="421" y="143" width="15" height="15" rx="3" fill="#161b22"/><rect class="c d9" x="421" y="162" width="15" height="15" rx="3" fill="#161b22"/><rect class="c d8" x="440" y="48" width="15" height="15" rx="3" fill="#161b22"/><rect class="c d8" x="440" y="67" width="15" height="15" rx="3" fill="#161b22"/><rect class="c d8" x="440" y="86" width="15" height="15" rx="3" fill="#161b22"/><rect class="c d8" x="440" y="105" width="15" height="15" rx="3" fill="#161b22"/><rect class="c d8" x="440" y="124" width="15" height="15" rx="3" fill="#161b22"/><rect class="c d8" x="440" y="143" width="15" height="15" rx="3" fill="#161b22"/><rect class="c d8" x="440" y="162" width="15" height="15" rx="3" fill="#161b22"/><rect class="c d7" x="459" y="48" width="15" height="15" rx="3" fill="#161b22"/><rect class="c d7" x="459" y="67" width="15" height="15" rx="3" fill="#161b22"/><rect class="c d7" x="459" y="86" width="15" height="15" rx="3" fill="#161b22"/><rect class="c d7" x="459" y="105" width="15" height="15" rx="3" fill="#161b22"/><rect class="c d7" x="459" y="124" width="15" height="15" rx="3" fill="#161b22"/><rect class="c d7" x="459" y="143" width="15" height="15" rx="3" fill="#161b22"/><rect class="c d7" x="459" y="162" width="15" height="15" rx="3" fill="#161b22"/><rect class="c d6" x="478" y="48" width="15" height="15" rx="3" fill="#161b22"/><rect class="c d6" x="478" y="67" width="15" height="15" rx="3" fill="#161b22"/><rect class="c d6" x="478" y="86" width="15" height="15" rx="3" fill="#161b22"/><rect class="c d6" x="478" y="105" width="15" height="15" rx="3" fill="#161b22"/><rect class="c d6" x="478" y="124" width="15" height="15" rx="3" fill="#161b22"/><rect class="c d6" x="478" y="143" width="15" height="15" rx="3" fill="#161b22"/><rect class="c d6" x="478" y="162" width="15" height="15" rx="3" fill="#161b22"/><rect class="c d5" x="497" y="48" width="15" height="15" rx="3" fill="#161b22"/><rect class="c d5" x="497" y="67" width="15" height="15" rx="3" fill="#161b22"/><rect class="c d5" x="497" y="86" width="15" height="15" rx="3" fill="#161b22"/><rect class="c d5" x="497" y="105" width="15" height="15" rx="3" fill="#161b22"/><rect class="c d5" x="497" y="124" width="15" height="15" rx="3" fill="#161b22"/><rect class="c d5" x="497" y="143" width="15" height="15" rx="3" fill="#161b22"/><rect class="c d5" x="497" y="162" width="15" height="15" rx="3" fill="#161b22"/><rect class="c d4" x="516" y="48" width="15" height="15" rx="3" fill="#161b22"/><rect class="c d4" x="516" y="67" width="15" height="15" rx="3" fill="#161b22"/><rect class="c d4" x="516" y="86" width="15" height="15" rx="3" fill="#161b22"/><rect class="c d4" x="516" y="105" width="15" height="15" rx="3" fill="#161b22"/><rect class="c d4" x="516" y="124" width="15" height="15" rx="3" fill="#161b22"/><rect class="c d4" x="516" y="143" width="15" height="15" rx="3" fill="#161b22"/><rect class="c d4" x="516" y="162" width="15" height="15" rx="3" fill="#161b22"/><rect class="c d3" x="535" y="48" width="15" height="15" rx="3" fill="#161b22"/><rect class="c d3" x="535" y="67" width="15" height="15" rx="3" fill="#161b22"/><rect class="c d3" x="535" y="86" width="15" height="15" rx="3" fill="#161b22"/><rect class="c d3" x="535" y="105" width="15" height="15" rx="3" fill="#161b22"/><rect class="c d3" x="535" y="124" width="15" height="15" rx="3" fill="#161b22"/><rect class="c d3" x="535" y="143" width="15" height="15" rx="3" fill="#161b22"/><rect class="c d3" x="535" y="162" width="15" height="15" rx="3" fill="#161b22"/><rect class="c d2" x="554" y="48" width="15" height="15" rx="3" fill="#161b22"/><rect class="c d2" x="554" y="67" width="15" height="15" rx="3" fill="#161b22"/><rect class="c d2" x="554" y="86" width="15" height="15" rx="3" fill="#161b22"/><rect class="c d2" x="554" y="105" width="15" height="15" rx="3" fill="#161b22"/><rect class="c d2" x="554" y="124" width="15" height="15" rx="3" fill="#161b22"/><rect class="c d2" x="554" y="143" width="15" height="15" rx="3" fill="#161b22"/><rect class="c d2" x="554" y="162" width="15" height="15" rx="3" fill="#161b22"/><rect class="c d1" x="573" y="48" width="15" height="15" rx="3" fill="#161b22"/><rect class="c d1" x="573" y="67" width="15" height="15" rx="3" fill="#161b22"/><rect class="c d1" x="573" y="86" width="15" height="15" rx="3" fill="#161b22"/><rect class="c d1" x="573" y="105" width="15" height="15" rx="3" fill="#161b22"/><rect class="c d1" x="573" y="124" width="15" height="15" rx="3" fill="#161b22"/><rect class="c d1" x="573" y="143" width="15" height="15" rx="3" fill="#161b22"/><rect class="c d1" x="573" y="162" width="15" height="15" rx="3" fill="#161b22"/><rect class="c d0" x="592" y="48" width="15" height="15" rx="3" fill="#161b22"/><rect class="c d0" x="592" y="67" width="15" height="15" rx="3" fill="#161b22"/><rect class="c d0" x="592" y="86" width="15" height="15" rx="3" fill="#161b22"/><rect class="c d0" x="592" y="105" width="15" height="15" rx="3" fill="#161b22"/><rect class="c d0" x="592" y="124" width="15" height="15" rx="3" fill="#161b22"/><rect class="c d0" x="592" y="143" width="15" height="15" rx="3" fill="#161b22"/><rect class="c d0" x="592" y="162" width="15" height="15" rx="3" fill="#161b22"/><rect class="c d1" x="611" y="48" width="15" height="15" rx="3" fill="#161b22"/><rect class="c d1" x="611" y="67" width="15" height="15" rx="3" fill="#161b22"/><rect class="c d1" x="611" y="86" width="15" height="15" rx="3" fill="#161b22"/><rect class="c d1" x="611" y="105" width="15" height="15" rx="3" fill="#161b22"/><rect class="c d1" x="611" y="124" width="15" height="15" rx="3" fill="#161b22"/><rect class="c d1" x="611" y="143" width="15" height="15" rx="3" fill="#161b22"/><rect class="c d1" x="611" y="162" width="15" height="15" rx="3" fill="#161b22"/><rect class="c d2" x="630" y="48" width="15" height="15" rx="3" fill="#161b22"/><rect class="c d2" x="630" y="67" width="15" height="15" rx="3" fill="#161b22"/><rect class="c d2" x="630" y="86" width="15" height="15" rx="3" fill="#161b22"/><rect class="c d2" x="630" y="105" width="15" height="15" rx="3" fill="#161b22"/><rect class="c d2" x="630" y="124" width="15" height="15" rx="3" fill="#161b22"/><rect class="c d2" x="630" y="143" width="15" height="15" rx="3" fill="#161b22"/><rect class="c d2" x="630" y="162" width="15" height="15" rx="3" fill="#161b22"/><rect class="c d3" x="649" y="48" width="15" height="15" rx="3" fill="#161b22"/><rect class="c d3" x="649" y="67" width="15" height="15" rx="3" fill="#161b22"/><rect class="c d3" x="649" y="86" width="15" height="15" rx="3" fill="#161b22"/><rect class="c d3" x="649" y="105" width="15" height="15" rx="3" fill="#161b22"/><rect class="c d3" x="649" y="124" width="15" height="15" rx="3" fill="#161b22"/><rect class="c d3" x="649" y="143" width="15" height="15" rx="3" fill="#161b22"/><rect class="c d3" x="649" y="162" width="15" height="15" rx="3" fill="#161b22"/><rect class="c d4" x="668" y="48" width="15" height="15" rx="3" fill="#161b22"/><rect class="c d4" x="668" y="67" width="15" height="15" rx="3" fill="#161b22"/><rect class="c d4" x="668" y="86" width="15" height="15" rx="3" fill="#161b22"/><rect class="c d4" x="668" y="105" width="15" height="15" rx="3" fill="#006d32"/><rect class="c d4" x="668" y="124" width="15" height="15" rx="3" fill="#161b22"/><rect class="c d4" x="668" y="143" width="15" height="15" rx="3" fill="#161b22"/><rect class="c d4" x="668" y="162" width="15" height="15" rx="3" fill="#161b22"/><rect class="c d5" x="687" y="48" width="15" height="15" rx="3" fill="#0e4429"/><rect class="c d5" x="687" y="67" width="15" height="15" rx="3" fill="#006d32"/><rect class="c d5" x="687" y="86" width="15" height="15" rx="3" fill="#0e4429"/><rect class="c d5" x="687" y="105" width="15" height="15" rx="3" fill="#006d32"/><rect class="c d5" x="687" y="124" width="15" height="15" rx="3" fill="#161b22"/><rect class="c d5" x="687" y="143" width="15" height="15" rx="3" fill="#161b22"/><rect class="c d5" x="687" y="162" width="15" height="15" rx="3" fill="#006d32"/><rect class="c d6" x="706" y="48" width="15" height="15" rx="3" fill="#161b22"/><rect class="c d6" x="706" y="67" width="15" height="15" rx="3" fill="#161b22"/><rect class="c d6" x="706" y="86" width="15" height="15" rx="3" fill="#161b22"/><rect class="c d6" x="706" y="105" width="15" height="15" rx="3" fill="#161b22"/><rect class="c d6" x="706" y="124" width="15" height="15" rx="3" fill="#161b22"/><rect class="c d6" x="706" y="143" width="15" height="15" rx="3" fill="#161b22"/><rect class="c d6" x="706" y="162" width="15" height="15" rx="3" fill="#161b22"/><rect class="c d7" x="725" y="48" width="15" height="15" rx="3" fill="#161b22"/><rect class="c d7" x="725" y="67" width="15" height="15" rx="3" fill="#0e4429"/><rect class="c d7" x="725" y="86" width="15" height="15" rx="3" fill="#161b22"/><rect class="c d7" x="725" y="105" width="15" height="15" rx="3" fill="#0e4429"/><rect class="c d7" x="725" y="124" width="15" height="15" rx="3" fill="#161b22"/><rect class="c d7" x="725" y="143" width="15" height="15" rx="3" fill="#161b22"/><rect class="c d7" x="725" y="162" width="15" height="15" rx="3" fill="#161b22"/><rect class="c d8" x="744" y="48" width="15" height="15" rx="3" fill="#161b22"/><rect class="c d8" x="744" y="67" width="15" height="15" rx="3" fill="#161b22"/><rect class="c d8" x="744" y="86" width="15" height="15" rx="3" fill="#006d32"/><rect class="c d8" x="744" y="105" width="15" height="15" rx="3" fill="#26a641"/><rect class="c d8" x="744" y="124" width="15" height="15" rx="3" fill="#26a641"/><rect class="c d8" x="744" y="143" width="15" height="15" rx="3" fill="#26a641"/><rect class="c d8" x="744" y="162" width="15" height="15" rx="3" fill="#006d32"/><rect class="c d9" x="763" y="48" width="15" height="15" rx="3" fill="#161b22"/><rect class="c d9" x="763" y="67" width="15" height="15" rx="3" fill="#161b22"/><rect class="c d9" x="763" y="86" width="15" height="15" rx="3" fill="#26a641"/><rect class="c d9" x="763" y="105" width="15" height="15" rx="3" fill="#26a641"/><rect class="c d9" x="763" y="124" width="15" height="15" rx="3" fill="#006d32"/><rect class="c d9" x="763" y="143" width="15" height="15" rx="3" fill="#26a641"/><rect class="c d9" x="763" y="162" width="15" height="15" rx="3" fill="#161b22"/><rect class="c d10" x="782" y="48" width="15" height="15" rx="3" fill="#26a641"/><rect class="c d10" x="782" y="67" width="15" height="15" rx="3" fill="#26a641"/><rect class="c d10" x="782" y="86" width="15" height="15" rx="3" fill="#006d32"/><rect class="c d10" x="782" y="105" width="15" height="15" rx="3" fill="#161b22"/><rect class="c d10" x="782" y="124" width="15" height="15" rx="3" fill="#0e4429"/><rect class="c d10" x="782" y="143" width="15" height="15" rx="3" fill="#0e4429"/><rect class="c d10" x="782" y="162" width="15" height="15" rx="3" fill="#006d32"/><rect class="c d11" x="801" y="48" width="15" height="15" rx="3" fill="#161b22"/><rect class="c d11" x="801" y="67" width="15" height="15" rx="3" fill="#0e4429"/><rect class="c d11" x="801" y="86" width="15" height="15" rx="3" fill="#161b22"/><rect class="c d11" x="801" y="105" width="15" height="15" rx="3" fill="#006d32"/><rect class="c d11" x="801" y="124" width="15" height="15" rx="3" fill="#161b22"/><rect class="c d11" x="801" y="143" width="15" height="15" rx="3" fill="#161b22"/><rect class="c d11" x="801" y="162" width="15" height="15" rx="3" fill="#006d32"/><rect class="c d12" x="820" y="48" width="15" height="15" rx="3" fill="#006d32"/><rect class="c d12" x="820" y="67" width="15" height="15" rx="3" fill="#006d32"/><rect class="c d12" x="820" y="86" width="15" height="15" rx="3" fill="#161b22"/><rect class="c d12" x="820" y="105" width="15" height="15" rx="3" fill="#0e4429"/><rect class="c d12" x="820" y="124" width="15" height="15" rx="3" fill="#006d32"/><rect class="c d12" x="820" y="143" width="15" height="15" rx="3" fill="#006d32"/><rect class="c d12" x="820" y="162" width="15" height="15" rx="3" fill="#006d32"/><rect class="c d13" x="839" y="48" width="15" height="15" rx="3" fill="#161b22"/><rect class="c d13" x="839" y="67" width="15" height="15" rx="3" fill="#26a641"/><rect class="c d13" x="839" y="86" width="15" height="15" rx="3" fill="#006d32"/><rect class="c d13" x="839" y="105" width="15" height="15" rx="3" fill="#26a641"/><rect class="c d13" x="839" y="124" width="15" height="15" rx="3" fill="#161b22"/><rect class="c d13" x="839" y="143" width="15" height="15" rx="3" fill="#006d32"/><rect class="c d13" x="839" y="162" width="15" height="15" rx="3" fill="#26a641"/><rect class="c d14" x="858" y="48" width="15" height="15" rx="3" fill="#26a641"/><rect class="c d14" x="858" y="67" width="15" height="15" rx="3" fill="#26a641"/><rect class="c d14" x="858" y="86" width="15" height="15" rx="3" fill="#161b22"/><rect class="c d14" x="858" y="105" width="15" height="15" rx="3" fill="#0e4429"/><rect class="c d14" x="858" y="124" width="15" height="15" rx="3" fill="#161b22"/><rect class="c d14" x="858" y="143" width="15" height="15" rx="3" fill="#161b22"/><rect class="c d14" x="858" y="162" width="15" height="15" rx="3" fill="#161b22"/><rect class="c d15" x="877" y="48" width="15" height="15" rx="3" fill="#161b22"/><rect class="c d15" x="877" y="67" width="15" height="15" rx="3" fill="#39d353"/><rect class="c d15" x="877" y="86" width="15" height="15" rx="3" fill="#006d32"/><rect class="c d15" x="877" y="105" width="15" height="15" rx="3" fill="#161b22"/><rect class="c d15" x="877" y="124" width="15" height="15" rx="3" fill="#161b22"/><rect class="c d15" x="877" y="143" width="15" height="15" rx="3" fill="#006d32"/><rect class="c d15" x="877" y="162" width="15" height="15" rx="3" fill="#161b22"/><rect class="c d16" x="896" y="48" width="15" height="15" rx="3" fill="#0e4429"/><rect class="c d16" x="896" y="67" width="15" height="15" rx="3" fill="#26a641"/><rect class="c d16" x="896" y="86" width="15" height="15" rx="3" fill="#26a641"/><rect class="c d16" x="896" y="105" width="15" height="15" rx="3" fill="#39d353"/><rect class="c d16" x="896" y="124" width="15" height="15" rx="3" fill="#26a641"/><rect class="c d16" x="896" y="143" width="15" height="15" rx="3" fill="#26a641"/><rect class="c d16" x="896" y="162" width="15" height="15" rx="3" fill="#161b22"/><rect class="c d17" x="915" y="48" width="15" height="15" rx="3" fill="#161b22"/><rect class="c d17" x="915" y="67" width="15" height="15" rx="3" fill="#0e4429"/><rect class="c d17" x="915" y="86" width="15" height="15" rx="3" fill="#39d353"/><rect class="c d17" x="915" y="105" width="15" height="15" rx="3" fill="#26a641"/><rect class="c d17" x="915" y="124" width="15" height="15" rx="3" fill="#161b22"/><rect class="c d17" x="915" y="143" width="15" height="15" rx="3" fill="#006d32"/><rect class="c d17" x="915" y="162" width="15" height="15" rx="3" fill="#161b22"/><rect class="c d18" x="934" y="48" width="15" height="15" rx="3" fill="#161b22"/><rect class="c d18" x="934" y="67" width="15" height="15" rx="3" fill="#0e4429"/><rect class="c d18" x="934" y="86" width="15" height="15" rx="3" fill="#161b22"/><rect class="c d18" x="934" y="105" width="15" height="15" rx="3" fill="#39d353"/><rect class="c d18" x="934" y="124" width="15" height="15" rx="3" fill="#39d353"/><rect class="c d18" x="934" y="143" width="15" height="15" rx="3" fill="#39d353"/><rect class="c d18" x="934" y="162" width="15" height="15" rx="3" fill="#161b22"/><rect class="c d19" x="953" y="48" width="15" height="15" rx="3" fill="#161b22"/><rect class="c d19" x="953" y="67" width="15" height="15" rx="3" fill="#161b22"/><rect class="c d19" x="953" y="86" width="15" height="15" rx="3" fill="#161b22"/><rect class="c d19" x="953" y="105" width="15" height="15" rx="3" fill="#161b22"/><rect class="c d19" x="953" y="124" width="15" height="15" rx="3" fill="#161b22"/><rect class="c d19" x="953" y="143" width="15" height="15" rx="3" fill="#161b22"/><rect class="c d19" x="953" y="162" width="15" height="15" rx="3" fill="#161b22"/><rect class="c d20" x="972" y="48" width="15" height="15" rx="3" fill="#161b22"/><rect class="c d20" x="972" y="67" width="15" height="15" rx="3" fill="#26a641"/><rect class="c d20" x="972" y="86" width="15" height="15" rx="3" fill="#161b22"/><rect class="c d20" x="972" y="105" width="15" height="15" rx="3" fill="#39d353"/><rect class="c d20" x="972" y="124" width="15" height="15" rx="3" fill="#39d353"/><rect class="c d20" x="972" y="143" width="15" height="15" rx="3" fill="#26a641"/><rect class="c d20" x="972" y="162" width="15" height="15" rx="3" fill="#161b22"/><rect class="c d21" x="991" y="48" width="15" height="15" rx="3" fill="#161b22"/><rect class="c d21" x="991" y="67" width="15" height="15" rx="3" fill="#161b22"/><rect class="c d21" x="991" y="86" width="15" height="15" rx="3" fill="#26a641"/><rect class="c d21" x="991" y="105" width="15" height="15" rx="3" fill="#006d32"/><rect class="c d21" x="991" y="124" width="15" height="15" rx="3" fill="#161b22"/><rect class="c d21" x="991" y="143" width="15" height="15" rx="3" fill="#26a641"/><rect class="c d21" x="991" y="162" width="15" height="15" rx="3" fill="#161b22"/><rect class="c d22" x="1010" y="48" width="15" height="15" rx="3" fill="#161b22"/><rect class="c d22" x="1010" y="67" width="15" height="15" rx="3" fill="#161b22"/><rect class="c d22" x="1010" y="86" width="15" height="15" rx="3" fill="#161b22"/><rect class="c d22" x="1010" y="105" width="15" height="15" rx="3" fill="#161b22"/><rect class="c d22" x="1010" y="124" width="15" height="15" rx="3" fill="#161b22"/><rect class="c d22" x="1010" y="143" width="15" height="15" rx="3" fill="#161b22"/><rect class="c d22" x="1010" y="162" width="15" height="15" rx="3" fill="#161b22"/><rect class="c d23" x="1029" y="48" width="15" height="15" rx="3" fill="#161b22"/><rect class="c d23" x="1029" y="67" width="15" height="15" rx="3" fill="#39d353"/><rect class="c d23" x="1029" y="86" width="15" height="15" rx="3" fill="#26a641"/><rect class="c d23" x="1029" y="105" width="15" height="15" rx="3" fill="#006d32"/><rect class="c d23" x="1029" y="124" width="15" height="15" rx="3" fill="#26a641"/><rect class="c d23" x="1029" y="143" width="15" height="15" rx="3" fill="#26a641"/><rect class="c d23" x="1029" y="162" width="15" height="15" rx="3" fill="#0e4429"/><rect class="c d24" x="1048" y="48" width="15" height="15" rx="3" fill="#0e4429"/><rect class="c d24" x="1048" y="67" width="15" height="15" rx="3" fill="#006d32"/><rect class="c d24" x="1048" y="86" width="15" height="15" rx="3" fill="#006d32"/><rect class="c d24" x="1048" y="105" width="15" height="15" rx="3" fill="#26a641"/><rect class="c d24" x="1048" y="124" width="15" height="15" rx="3" fill="#006d32"/><rect class="c d24" x="1048" y="143" width="15" height="15" rx="3" fill="#26a641"/><rect class="c d24" x="1048" y="162" width="15" height="15" rx="3" fill="#161b22"/><rect class="c d25" x="1067" y="48" width="15" height="15" rx="3" fill="#161b22"/><rect class="c d25" x="1067" y="67" width="15" height="15" rx="3" fill="#006d32"/><rect class="c d25" x="1067" y="86" width="15" height="15" rx="3" fill="#26a641"/><rect class="c d25" x="1067" y="105" width="15" height="15" rx="3" fill="#39d353"/><rect class="c d25" x="1067" y="124" width="15" height="15" rx="3" fill="#39d353"/><rect class="c d25" x="1067" y="143" width="15" height="15" rx="3" fill="#39d353"/><rect class="c d25" x="1067" y="162" width="15" height="15" rx="3" fill="#26a641"/><rect class="c d26" x="1086" y="48" width="15" height="15" rx="3" fill="#26a641"/><rect class="c d26" x="1086" y="67" width="15" height="15" rx="3" fill="#006d32"/><rect class="c d26" x="1086" y="86" width="15" height="15" rx="3" fill="#26a641"/><rect class="c d26" x="1086" y="105" width="15" height="15" rx="3" fill="#26a641"/><rect class="c d26" x="1086" y="124" width="15" height="15" rx="3" fill="#0e4429"/><rect class="c d26" x="1086" y="143" width="15" height="15" rx="3" fill="#26a641"/><rect class="c d26" x="1086" y="162" width="15" height="15" rx="3" fill="#0e4429"/></g><rect class="front frontL" x="590.5" y="38" width="9" height="149" rx="4.5" fill="#D97757" filter="url(#fglow)"/><rect class="front frontR" x="599.5" y="38" width="9" height="149" rx="4.5" fill="#D97757" filter="url(#fglow)"/><g class="boundary"><line x1="599.5" y1="38" x2="599.5" y2="187" stroke="#D97757" stroke-width="7" filter="url(#bglow)" opacity="0.65"/><line x1="599.5" y1="38" x2="599.5" y2="187" stroke="#D97757" stroke-width="2"/></g><circle class="node" cx="599.5" cy="40" r="4" fill="#ffd9c9"/></svg>
