<svg xmlns="http://www.w3.org/2000/svg" width="1200" height="250" viewBox="0 0 1200 250" role="img" aria-label="My contribution graph as a field of Gemini stars, the active days rotating and twinkling"><defs><style>.s{transform-box:fill-box;transform-origin:center}.e{animation:hue 16.0s linear infinite}.f{animation:hue 16.0s linear infinite,spin 12.0s ease-in-out infinite}@keyframes hue{0%{fill:#4285F4}25%{fill:#7C6CF0}50%{fill:#C56BB0}75%{fill:#E8769A}100%{fill:#4285F4}}@keyframes spin{0%{transform:rotate(0deg) scale(.82)}50%{transform:rotate(180deg) scale(1.12)}100%{transform:rotate(360deg) scale(.82)}}</style></defs><rect width="1200" height="250" fill="#0d1117"/><g transform="translate(44,50)"><path class="s e" style="animation-delay:-0.00s" opacity="0.5" d="M0,-3.6Q0.5,-0.5 3.6,0Q0.5,0.5 0,3.6Q-0.5,0.5 -3.6,0Q-0.5,-0.5 0,-3.6Z"/></g><g transform="translate(44,71)"><path class="s e" style="animation-delay:-0.00s" opacity="0.5" d="M0,-3.6Q0.5,-0.5 3.6,0Q0.5,0.5 0,3.6Q-0.5,0.5 -3.6,0Q-0.5,-0.5 0,-3.6Z"/></g><g transform="translate(44,92)"><path class="s e" style="animation-delay:-0.00s" opacity="0.5" d="M0,-3.6Q0.5,-0.5 3.6,0Q0.5,0.5 0,3.6Q-0.5,0.5 -3.6,0Q-0.5,-0.5 0,-3.6Z"/></g><g transform="translate(44,113)"><path class="s e" style="animation-delay:-0.00s" opacity="0.5" d="M0,-3.6Q0.5,-0.5 3.6,0Q0.5,0.5 0,3.6Q-0.5,0.5 -3.6,0Q-0.5,-0.5 0,-3.6Z"/></g><g transform="translate(44,134)"><path class="s e" style="animation-delay:-0.00s" opacity="0.5" d="M0,-3.6Q0.5,-0.5 3.6,0Q0.5,0.5 0,3.6Q-0.5,0.5 -3.6,0Q-0.5,-0.5 0,-3.6Z"/></g><g transform="translate(44,155)"><path class="s e" style="animation-delay:-0.00s" opacity="0.5" d="M0,-3.6Q0.5,-0.5 3.6,0Q0.5,0.5 0,3.6Q-0.5,0.5 -3.6,0Q-0.5,-0.5 0,-3.6Z"/></g><g transform="translate(44,176)"><path class="s e" style="animation-delay:-0.00s" opacity="0.5" d="M0,-3.6Q0.5,-0.5 3.6,0Q0.5,0.5 0,3.6Q-0.5,0.5 -3.6,0Q-0.5,-0.5 0,-3.6Z"/></g><g transform="translate(65,50)"><path class="s e" style="animation-delay:-0.30s" opacity="0.5" d="M0,-3.6Q0.5,-0.5 3.6,0Q0.5,0.5 0,3.6Q-0.5,0.5 -3.6,0Q-0.5,-0.5 0,-3.6Z"/></g><g transform="translate(65,71)"><path class="s e" style="animation-delay:-0.30s" opacity="0.5" d="M0,-3.6Q0.5,-0.5 3.6,0Q0.5,0.5 0,3.6Q-0.5,0.5 -3.6,0Q-0.5,-0.5 0,-3.6Z"/></g><g transform="translate(65,92)"><path class="s e" style="animation-delay:-0.30s" opacity="0.5" d="M0,-3.6Q0.5,-0.5 3.6,0Q0.5,0.5 0,3.6Q-0.5,0.5 -3.6,0Q-0.5,-0.5 0,-3.6Z"/></g><g transform="translate(65,113)"><path class="s e" style="animation-delay:-0.30s" opacity="0.5" d="M0,-3.6Q0.5,-0.5 3.6,0Q0.5,0.5 0,3.6Q-0.5,0.5 -3.6,0Q-0.5,-0.5 0,-3.6Z"/></g><g transform="translate(65,134)"><path class="s e" style="animation-delay:-0.30s" opacity="0.5" d="M0,-3.6Q0.5,-0.5 3.6,0Q0.5,0.5 0,3.6Q-0.5,0.5 -3.6,0Q-0.5,-0.5 0,-3.6Z"/></g><g transform="translate(65,155)"><path class="s e" style="animation-delay:-0.30s" opacity="0.5" d="M0,-3.6Q0.5,-0.5 3.6,0Q0.5,0.5 0,3.6Q-0.5,0.5 -3.6,0Q-0.5,-0.5 0,-3.6Z"/></g><g transform="translate(65,176)"><path class="s e" style="animation-delay:-0.30s" opacity="0.5" d="M0,-3.6Q0.5,-0.5 3.6,0Q0.5,0.5 0,3.6Q-0.5,0.5 -3.6,0Q-0.5,-0.5 0,-3.6Z"/></g><g transform="translate(86,50)"><path class="s e" style="animation-delay:-0.60s" opacity="0.5" d="M0,-3.6Q0.5,-0.5 3.6,0Q0.5,0.5 0,3.6Q-0.5,0.5 -3.6,0Q-0.5,-0.5 0,-3.6Z"/></g><g transform="translate(86,71)"><path class="s e" style="animation-delay:-0.60s" opacity="0.5" d="M0,-3.6Q0.5,-0.5 3.6,0Q0.5,0.5 0,3.6Q-0.5,0.5 -3.6,0Q-0.5,-0.5 0,-3.6Z"/></g><g transform="translate(86,92)"><path class="s e" style="animation-delay:-0.60s" opacity="0.5" d="M0,-3.6Q0.5,-0.5 3.6,0Q0.5,0.5 0,3.6Q-0.5,0.5 -3.6,0Q-0.5,-0.5 0,-3.6Z"/></g><g transform="translate(86,113)"><path class="s e" style="animation-delay:-0.60s" opacity="0.5" d="M0,-3.6Q0.5,-0.5 3.6,0Q0.5,0.5 0,3.6Q-0.5,0.5 -3.6,0Q-0.5,-0.5 0,-3.6Z"/></g><g transform="translate(86,134)"><path class="s e" style="animation-delay:-0.60s" opacity="0.5" d="M0,-3.6Q0.5,-0.5 3.6,0Q0.5,0.5 0,3.6Q-0.5,0.5 -3.6,0Q-0.5,-0.5 0,-3.6Z"/></g><g transform="translate(86,155)"><path class="s e" style="animation-delay:-0.60s" opacity="0.5" d="M0,-3.6Q0.5,-0.5 3.6,0Q0.5,0.5 0,3.6Q-0.5,0.5 -3.6,0Q-0.5,-0.5 0,-3.6Z"/></g><g transform="translate(86,176)"><path class="s e" style="animation-delay:-0.60s" opacity="0.5" d="M0,-3.6Q0.5,-0.5 3.6,0Q0.5,0.5 0,3.6Q-0.5,0.5 -3.6,0Q-0.5,-0.5 0,-3.6Z"/></g><g transform="translate(107,50)"><path class="s e" style="animation-delay:-0.91s" opacity="0.5" d="M0,-3.6Q0.5,-0.5 3.6,0Q0.5,0.5 0,3.6Q-0.5,0.5 -3.6,0Q-0.5,-0.5 0,-3.6Z"/></g><g transform="translate(107,71)"><path class="s e" style="animation-delay:-0.91s" opacity="0.5" d="M0,-3.6Q0.5,-0.5 3.6,0Q0.5,0.5 0,3.6Q-0.5,0.5 -3.6,0Q-0.5,-0.5 0,-3.6Z"/></g><g transform="translate(107,92)"><path class="s e" style="animation-delay:-0.91s" opacity="0.5" d="M0,-3.6Q0.5,-0.5 3.6,0Q0.5,0.5 0,3.6Q-0.5,0.5 -3.6,0Q-0.5,-0.5 0,-3.6Z"/></g><g transform="translate(107,113)"><path class="s e" style="animation-delay:-0.91s" opacity="0.5" d="M0,-3.6Q0.5,-0.5 3.6,0Q0.5,0.5 0,3.6Q-0.5,0.5 -3.6,0Q-0.5,-0.5 0,-3.6Z"/></g><g transform="translate(107,134)"><path class="s e" style="animation-delay:-0.91s" opacity="0.5" d="M0,-3.6Q0.5,-0.5 3.6,0Q0.5,0.5 0,3.6Q-0.5,0.5 -3.6,0Q-0.5,-0.5 0,-3.6Z"/></g><g transform="translate(107,155)"><path class="s e" style="animation-delay:-0.91s" opacity="0.5" d="M0,-3.6Q0.5,-0.5 3.6,0Q0.5,0.5 0,3.6Q-0.5,0.5 -3.6,0Q-0.5,-0.5 0,-3.6Z"/></g><g transform="translate(107,176)"><path class="s e" style="animation-delay:-0.91s" opacity="0.5" d="M0,-3.6Q0.5,-0.5 3.6,0Q0.5,0.5 0,3.6Q-0.5,0.5 -3.6,0Q-0.5,-0.5 0,-3.6Z"/></g><g transform="translate(128,50)"><path class="s e" style="animation-delay:-1.21s" opacity="0.5" d="M0,-3.6Q0.5,-0.5 3.6,0Q0.5,0.5 0,3.6Q-0.5,0.5 -3.6,0Q-0.5,-0.5 0,-3.6Z"/></g><g transform="translate(128,71)"><path class="s e" style="animation-delay:-1.21s" opacity="0.5" d="M0,-3.6Q0.5,-0.5 3.6,0Q0.5,0.5 0,3.6Q-0.5,0.5 -3.6,0Q-0.5,-0.5 0,-3.6Z"/></g><g transform="translate(128,92)"><path class="s e" style="animation-delay:-1.21s" opacity="0.5" d="M0,-3.6Q0.5,-0.5 3.6,0Q0.5,0.5 0,3.6Q-0.5,0.5 -3.6,0Q-0.5,-0.5 0,-3.6Z"/></g><g transform="translate(128,113)"><path class="s e" style="animation-delay:-1.21s" opacity="0.5" d="M0,-3.6Q0.5,-0.5 3.6,0Q0.5,0.5 0,3.6Q-0.5,0.5 -3.6,0Q-0.5,-0.5 0,-3.6Z"/></g><g transform="translate(128,134)"><path class="s e" style="animation-delay:-1.21s" opacity="0.5" d="M0,-3.6Q0.5,-0.5 3.6,0Q0.5,0.5 0,3.6Q-0.5,0.5 -3.6,0Q-0.5,-0.5 0,-3.6Z"/></g><g transform="translate(128,155)"><path class="s e" style="animation-delay:-1.21s" opacity="0.5" d="M0,-3.6Q0.5,-0.5 3.6,0Q0.5,0.5 0,3.6Q-0.5,0.5 -3.6,0Q-0.5,-0.5 0,-3.6Z"/></g><g transform="translate(128,176)"><path class="s e" style="animation-delay:-1.21s" opacity="0.5" d="M0,-3.6Q0.5,-0.5 3.6,0Q0.5,0.5 0,3.6Q-0.5,0.5 -3.6,0Q-0.5,-0.5 0,-3.6Z"/></g><g transform="translate(149,50)"><path class="s e" style="animation-delay:-1.51s" opacity="0.5" d="M0,-3.6Q0.5,-0.5 3.6,0Q0.5,0.5 0,3.6Q-0.5,0.5 -3.6,0Q-0.5,-0.5 0,-3.6Z"/></g><g transform="translate(149,71)"><path class="s e" style="animation-delay:-1.51s" opacity="0.5" d="M0,-3.6Q0.5,-0.5 3.6,0Q0.5,0.5 0,3.6Q-0.5,0.5 -3.6,0Q-0.5,-0.5 0,-3.6Z"/></g><g transform="translate(149,92)"><path class="s e" style="animation-delay:-1.51s" opacity="0.5" d="M0,-3.6Q0.5,-0.5 3.6,0Q0.5,0.5 0,3.6Q-0.5,0.5 -3.6,0Q-0.5,-0.5 0,-3.6Z"/></g><g transform="translate(149,113)"><path class="s e" style="animation-delay:-1.51s" opacity="0.5" d="M0,-3.6Q0.5,-0.5 3.6,0Q0.5,0.5 0,3.6Q-0.5,0.5 -3.6,0Q-0.5,-0.5 0,-3.6Z"/></g><g transform="translate(149,134)"><path class="s e" style="animation-delay:-1.51s" opacity="0.5" d="M0,-3.6Q0.5,-0.5 3.6,0Q0.5,0.5 0,3.6Q-0.5,0.5 -3.6,0Q-0.5,-0.5 0,-3.6Z"/></g><g transform="translate(149,155)"><path class="s e" style="animation-delay:-1.51s" opacity="0.5" d="M0,-3.6Q0.5,-0.5 3.6,0Q0.5,0.5 0,3.6Q-0.5,0.5 -3.6,0Q-0.5,-0.5 0,-3.6Z"/></g><g transform="translate(149,176)"><path class="s e" style="animation-delay:-1.51s" opacity="0.5" d="M0,-3.6Q0.5,-0.5 3.6,0Q0.5,0.5 0,3.6Q-0.5,0.5 -3.6,0Q-0.5,-0.5 0,-3.6Z"/></g><g transform="translate(170,50)"><path class="s e" style="animation-delay:-1.81s" opacity="0.5" d="M0,-3.6Q0.5,-0.5 3.6,0Q0.5,0.5 0,3.6Q-0.5,0.5 -3.6,0Q-0.5,-0.5 0,-3.6Z"/></g><g transform="translate(170,71)"><path class="s e" style="animation-delay:-1.81s" opacity="0.5" d="M0,-3.6Q0.5,-0.5 3.6,0Q0.5,0.5 0,3.6Q-0.5,0.5 -3.6,0Q-0.5,-0.5 0,-3.6Z"/></g><g transform="translate(170,92)"><path class="s e" style="animation-delay:-1.81s" opacity="0.5" d="M0,-3.6Q0.5,-0.5 3.6,0Q0.5,0.5 0,3.6Q-0.5,0.5 -3.6,0Q-0.5,-0.5 0,-3.6Z"/></g><g transform="translate(170,113)"><path class="s e" style="animation-delay:-1.81s" opacity="0.5" d="M0,-3.6Q0.5,-0.5 3.6,0Q0.5,0.5 0,3.6Q-0.5,0.5 -3.6,0Q-0.5,-0.5 0,-3.6Z"/></g><g transform="translate(170,134)"><path class="s e" style="animation-delay:-1.81s" opacity="0.5" d="M0,-3.6Q0.5,-0.5 3.6,0Q0.5,0.5 0,3.6Q-0.5,0.5 -3.6,0Q-0.5,-0.5 0,-3.6Z"/></g><g transform="translate(170,155)"><path class="s e" style="animation-delay:-1.81s" opacity="0.5" d="M0,-3.6Q0.5,-0.5 3.6,0Q0.5,0.5 0,3.6Q-0.5,0.5 -3.6,0Q-0.5,-0.5 0,-3.6Z"/></g><g transform="translate(170,176)"><path class="s e" style="animation-delay:-1.81s" opacity="0.5" d="M0,-3.6Q0.5,-0.5 3.6,0Q0.5,0.5 0,3.6Q-0.5,0.5 -3.6,0Q-0.5,-0.5 0,-3.6Z"/></g><g transform="translate(191,50)"><path class="s e" style="animation-delay:-2.11s" opacity="0.5" d="M0,-3.6Q0.5,-0.5 3.6,0Q0.5,0.5 0,3.6Q-0.5,0.5 -3.6,0Q-0.5,-0.5 0,-3.6Z"/></g><g transform="translate(191,71)"><path class="s e" style="animation-delay:-2.11s" opacity="0.5" d="M0,-3.6Q0.5,-0.5 3.6,0Q0.5,0.5 0,3.6Q-0.5,0.5 -3.6,0Q-0.5,-0.5 0,-3.6Z"/></g><g transform="translate(191,92)"><path class="s e" style="animation-delay:-2.11s" opacity="0.5" d="M0,-3.6Q0.5,-0.5 3.6,0Q0.5,0.5 0,3.6Q-0.5,0.5 -3.6,0Q-0.5,-0.5 0,-3.6Z"/></g><g transform="translate(191,113)"><path class="s e" style="animation-delay:-2.11s" opacity="0.5" d="M0,-3.6Q0.5,-0.5 3.6,0Q0.5,0.5 0,3.6Q-0.5,0.5 -3.6,0Q-0.5,-0.5 0,-3.6Z"/></g><g transform="translate(191,134)"><path class="s e" style="animation-delay:-2.11s" opacity="0.5" d="M0,-3.6Q0.5,-0.5 3.6,0Q0.5,0.5 0,3.6Q-0.5,0.5 -3.6,0Q-0.5,-0.5 0,-3.6Z"/></g><g transform="translate(191,155)"><path class="s e" style="animation-delay:-2.11s" opacity="0.5" d="M0,-3.6Q0.5,-0.5 3.6,0Q0.5,0.5 0,3.6Q-0.5,0.5 -3.6,0Q-0.5,-0.5 0,-3.6Z"/></g><g transform="translate(191,176)"><path class="s e" style="animation-delay:-2.11s" opacity="0.5" d="M0,-3.6Q0.5,-0.5 3.6,0Q0.5,0.5 0,3.6Q-0.5,0.5 -3.6,0Q-0.5,-0.5 0,-3.6Z"/></g><g transform="translate(212,50)"><path class="s f" style="animation-delay:-2.42s,-10.40s" opacity="0.85" d="M0,-7.0Q1.0,-1.0 7.0,0Q1.0,1.0 0,7.0Q-1.0,1.0 -7.0,0Q-1.0,-1.0 0,-7.0Z"/></g><g transform="translate(212,71)"><path class="s e" style="animation-delay:-2.42s" opacity="0.5" d="M0,-3.6Q0.5,-0.5 3.6,0Q0.5,0.5 0,3.6Q-0.5,0.5 -3.6,0Q-0.5,-0.5 0,-3.6Z"/></g><g transform="translate(212,92)"><path class="s e" style="animation-delay:-2.42s" opacity="0.5" d="M0,-3.6Q0.5,-0.5 3.6,0Q0.5,0.5 0,3.6Q-0.5,0.5 -3.6,0Q-0.5,-0.5 0,-3.6Z"/></g><g transform="translate(212,113)"><path class="s e" style="animation-delay:-2.42s" opacity="0.5" d="M0,-3.6Q0.5,-0.5 3.6,0Q0.5,0.5 0,3.6Q-0.5,0.5 -3.6,0Q-0.5,-0.5 0,-3.6Z"/></g><g transform="translate(212,134)"><path class="s e" style="animation-delay:-2.42s" opacity="0.5" d="M0,-3.6Q0.5,-0.5 3.6,0Q0.5,0.5 0,3.6Q-0.5,0.5 -3.6,0Q-0.5,-0.5 0,-3.6Z"/></g><g transform="translate(212,155)"><path class="s e" style="animation-delay:-2.42s" opacity="0.5" d="M0,-3.6Q0.5,-0.5 3.6,0Q0.5,0.5 0,3.6Q-0.5,0.5 -3.6,0Q-0.5,-0.5 0,-3.6Z"/></g><g transform="translate(212,176)"><path class="s e" style="animation-delay:-2.42s" opacity="0.5" d="M0,-3.6Q0.5,-0.5 3.6,0Q0.5,0.5 0,3.6Q-0.5,0.5 -3.6,0Q-0.5,-0.5 0,-3.6Z"/></g><g transform="translate(233,50)"><path class="s e" style="animation-delay:-2.72s" opacity="0.5" d="M0,-3.6Q0.5,-0.5 3.6,0Q0.5,0.5 0,3.6Q-0.5,0.5 -3.6,0Q-0.5,-0.5 0,-3.6Z"/></g><g transform="translate(233,71)"><path class="s e" style="animation-delay:-2.72s" opacity="0.5" d="M0,-3.6Q0.5,-0.5 3.6,0Q0.5,0.5 0,3.6Q-0.5,0.5 -3.6,0Q-0.5,-0.5 0,-3.6Z"/></g><g transform="translate(233,92)"><path class="s e" style="animation-delay:-2.72s" opacity="0.5" d="M0,-3.6Q0.5,-0.5 3.6,0Q0.5,0.5 0,3.6Q-0.5,0.5 -3.6,0Q-0.5,-0.5 0,-3.6Z"/></g><g transform="translate(233,113)"><path class="s e" style="animation-delay:-2.72s" opacity="0.5" d="M0,-3.6Q0.5,-0.5 3.6,0Q0.5,0.5 0,3.6Q-0.5,0.5 -3.6,0Q-0.5,-0.5 0,-3.6Z"/></g><g transform="translate(233,134)"><path class="s e" style="animation-delay:-2.72s" opacity="0.5" d="M0,-3.6Q0.5,-0.5 3.6,0Q0.5,0.5 0,3.6Q-0.5,0.5 -3.6,0Q-0.5,-0.5 0,-3.6Z"/></g><g transform="translate(233,155)"><path class="s e" style="animation-delay:-2.72s" opacity="0.5" d="M0,-3.6Q0.5,-0.5 3.6,0Q0.5,0.5 0,3.6Q-0.5,0.5 -3.6,0Q-0.5,-0.5 0,-3.6Z"/></g><g transform="translate(233,176)"><path class="s e" style="animation-delay:-2.72s" opacity="0.5" d="M0,-3.6Q0.5,-0.5 3.6,0Q0.5,0.5 0,3.6Q-0.5,0.5 -3.6,0Q-0.5,-0.5 0,-3.6Z"/></g><g transform="translate(254,50)"><path class="s e" style="animation-delay:-3.02s" opacity="0.5" d="M0,-3.6Q0.5,-0.5 3.6,0Q0.5,0.5 0,3.6Q-0.5,0.5 -3.6,0Q-0.5,-0.5 0,-3.6Z"/></g><g transform="translate(254,71)"><path class="s e" style="animation-delay:-3.02s" opacity="0.5" d="M0,-3.6Q0.5,-0.5 3.6,0Q0.5,0.5 0,3.6Q-0.5,0.5 -3.6,0Q-0.5,-0.5 0,-3.6Z"/></g><g transform="translate(254,92)"><path class="s e" style="animation-delay:-3.02s" opacity="0.5" d="M0,-3.6Q0.5,-0.5 3.6,0Q0.5,0.5 0,3.6Q-0.5,0.5 -3.6,0Q-0.5,-0.5 0,-3.6Z"/></g><g transform="translate(254,113)"><path class="s e" style="animation-delay:-3.02s" opacity="0.5" d="M0,-3.6Q0.5,-0.5 3.6,0Q0.5,0.5 0,3.6Q-0.5,0.5 -3.6,0Q-0.5,-0.5 0,-3.6Z"/></g><g transform="translate(254,134)"><path class="s e" style="animation-delay:-3.02s" opacity="0.5" d="M0,-3.6Q0.5,-0.5 3.6,0Q0.5,0.5 0,3.6Q-0.5,0.5 -3.6,0Q-0.5,-0.5 0,-3.6Z"/></g><g transform="translate(254,155)"><path class="s e" style="animation-delay:-3.02s" opacity="0.5" d="M0,-3.6Q0.5,-0.5 3.6,0Q0.5,0.5 0,3.6Q-0.5,0.5 -3.6,0Q-0.5,-0.5 0,-3.6Z"/></g><g transform="translate(254,176)"><path class="s e" style="animation-delay:-3.02s" opacity="0.5" d="M0,-3.6Q0.5,-0.5 3.6,0Q0.5,0.5 0,3.6Q-0.5,0.5 -3.6,0Q-0.5,-0.5 0,-3.6Z"/></g><g transform="translate(275,50)"><path class="s e" style="animation-delay:-3.32s" opacity="0.5" d="M0,-3.6Q0.5,-0.5 3.6,0Q0.5,0.5 0,3.6Q-0.5,0.5 -3.6,0Q-0.5,-0.5 0,-3.6Z"/></g><g transform="translate(275,71)"><path class="s e" style="animation-delay:-3.32s" opacity="0.5" d="M0,-3.6Q0.5,-0.5 3.6,0Q0.5,0.5 0,3.6Q-0.5,0.5 -3.6,0Q-0.5,-0.5 0,-3.6Z"/></g><g transform="translate(275,92)"><path class="s e" style="animation-delay:-3.32s" opacity="0.5" d="M0,-3.6Q0.5,-0.5 3.6,0Q0.5,0.5 0,3.6Q-0.5,0.5 -3.6,0Q-0.5,-0.5 0,-3.6Z"/></g><g transform="translate(275,113)"><path class="s e" style="animation-delay:-3.32s" opacity="0.5" d="M0,-3.6Q0.5,-0.5 3.6,0Q0.5,0.5 0,3.6Q-0.5,0.5 -3.6,0Q-0.5,-0.5 0,-3.6Z"/></g><g transform="translate(275,134)"><path class="s e" style="animation-delay:-3.32s" opacity="0.5" d="M0,-3.6Q0.5,-0.5 3.6,0Q0.5,0.5 0,3.6Q-0.5,0.5 -3.6,0Q-0.5,-0.5 0,-3.6Z"/></g><g transform="translate(275,155)"><path class="s e" style="animation-delay:-3.32s" opacity="0.5" d="M0,-3.6Q0.5,-0.5 3.6,0Q0.5,0.5 0,3.6Q-0.5,0.5 -3.6,0Q-0.5,-0.5 0,-3.6Z"/></g><g transform="translate(275,176)"><path class="s e" style="animation-delay:-3.32s" opacity="0.5" d="M0,-3.6Q0.5,-0.5 3.6,0Q0.5,0.5 0,3.6Q-0.5,0.5 -3.6,0Q-0.5,-0.5 0,-3.6Z"/></g><g transform="translate(296,50)"><path class="s e" style="animation-delay:-3.62s" opacity="0.5" d="M0,-3.6Q0.5,-0.5 3.6,0Q0.5,0.5 0,3.6Q-0.5,0.5 -3.6,0Q-0.5,-0.5 0,-3.6Z"/></g><g transform="translate(296,71)"><path class="s e" style="animation-delay:-3.62s" opacity="0.5" d="M0,-3.6Q0.5,-0.5 3.6,0Q0.5,0.5 0,3.6Q-0.5,0.5 -3.6,0Q-0.5,-0.5 0,-3.6Z"/></g><g transform="translate(296,92)"><path class="s e" style="animation-delay:-3.62s" opacity="0.5" d="M0,-3.6Q0.5,-0.5 3.6,0Q0.5,0.5 0,3.6Q-0.5,0.5 -3.6,0Q-0.5,-0.5 0,-3.6Z"/></g><g transform="translate(296,113)"><path class="s e" style="animation-delay:-3.62s" opacity="0.5" d="M0,-3.6Q0.5,-0.5 3.6,0Q0.5,0.5 0,3.6Q-0.5,0.5 -3.6,0Q-0.5,-0.5 0,-3.6Z"/></g><g transform="translate(296,134)"><path class="s e" style="animation-delay:-3.62s" opacity="0.5" d="M0,-3.6Q0.5,-0.5 3.6,0Q0.5,0.5 0,3.6Q-0.5,0.5 -3.6,0Q-0.5,-0.5 0,-3.6Z"/></g><g transform="translate(296,155)"><path class="s e" style="animation-delay:-3.62s" opacity="0.5" d="M0,-3.6Q0.5,-0.5 3.6,0Q0.5,0.5 0,3.6Q-0.5,0.5 -3.6,0Q-0.5,-0.5 0,-3.6Z"/></g><g transform="translate(296,176)"><path class="s e" style="animation-delay:-3.62s" opacity="0.5" d="M0,-3.6Q0.5,-0.5 3.6,0Q0.5,0.5 0,3.6Q-0.5,0.5 -3.6,0Q-0.5,-0.5 0,-3.6Z"/></g><g transform="translate(317,50)"><path class="s e" style="animation-delay:-3.92s" opacity="0.5" d="M0,-3.6Q0.5,-0.5 3.6,0Q0.5,0.5 0,3.6Q-0.5,0.5 -3.6,0Q-0.5,-0.5 0,-3.6Z"/></g><g transform="translate(317,71)"><path class="s e" style="animation-delay:-3.92s" opacity="0.5" d="M0,-3.6Q0.5,-0.5 3.6,0Q0.5,0.5 0,3.6Q-0.5,0.5 -3.6,0Q-0.5,-0.5 0,-3.6Z"/></g><g transform="translate(317,92)"><path class="s e" style="animation-delay:-3.92s" opacity="0.5" d="M0,-3.6Q0.5,-0.5 3.6,0Q0.5,0.5 0,3.6Q-0.5,0.5 -3.6,0Q-0.5,-0.5 0,-3.6Z"/></g><g transform="translate(317,113)"><path class="s e" style="animation-delay:-3.92s" opacity="0.5" d="M0,-3.6Q0.5,-0.5 3.6,0Q0.5,0.5 0,3.6Q-0.5,0.5 -3.6,0Q-0.5,-0.5 0,-3.6Z"/></g><g transform="translate(317,134)"><path class="s e" style="animation-delay:-3.92s" opacity="0.5" d="M0,-3.6Q0.5,-0.5 3.6,0Q0.5,0.5 0,3.6Q-0.5,0.5 -3.6,0Q-0.5,-0.5 0,-3.6Z"/></g><g transform="translate(317,155)"><path class="s e" style="animation-delay:-3.92s" opacity="0.5" d="M0,-3.6Q0.5,-0.5 3.6,0Q0.5,0.5 0,3.6Q-0.5,0.5 -3.6,0Q-0.5,-0.5 0,-3.6Z"/></g><g transform="translate(317,176)"><path class="s e" style="animation-delay:-3.92s" opacity="0.5" d="M0,-3.6Q0.5,-0.5 3.6,0Q0.5,0.5 0,3.6Q-0.5,0.5 -3.6,0Q-0.5,-0.5 0,-3.6Z"/></g><g transform="translate(338,50)"><path class="s e" style="animation-delay:-4.23s" opacity="0.5" d="M0,-3.6Q0.5,-0.5 3.6,0Q0.5,0.5 0,3.6Q-0.5,0.5 -3.6,0Q-0.5,-0.5 0,-3.6Z"/></g><g transform="translate(338,71)"><path class="s e" style="animation-delay:-4.23s" opacity="0.5" d="M0,-3.6Q0.5,-0.5 3.6,0Q0.5,0.5 0,3.6Q-0.5,0.5 -3.6,0Q-0.5,-0.5 0,-3.6Z"/></g><g transform="translate(338,92)"><path class="s e" style="animation-delay:-4.23s" opacity="0.5" d="M0,-3.6Q0.5,-0.5 3.6,0Q0.5,0.5 0,3.6Q-0.5,0.5 -3.6,0Q-0.5,-0.5 0,-3.6Z"/></g><g transform="translate(338,113)"><path class="s e" style="animation-delay:-4.23s" opacity="0.5" d="M0,-3.6Q0.5,-0.5 3.6,0Q0.5,0.5 0,3.6Q-0.5,0.5 -3.6,0Q-0.5,-0.5 0,-3.6Z"/></g><g transform="translate(338,134)"><path class="s e" style="animation-delay:-4.23s" opacity="0.5" d="M0,-3.6Q0.5,-0.5 3.6,0Q0.5,0.5 0,3.6Q-0.5,0.5 -3.6,0Q-0.5,-0.5 0,-3.6Z"/></g><g transform="translate(338,155)"><path class="s e" style="animation-delay:-4.23s" opacity="0.5" d="M0,-3.6Q0.5,-0.5 3.6,0Q0.5,0.5 0,3.6Q-0.5,0.5 -3.6,0Q-0.5,-0.5 0,-3.6Z"/></g><g transform="translate(338,176)"><path class="s e" style="animation-delay:-4.23s" opacity="0.5" d="M0,-3.6Q0.5,-0.5 3.6,0Q0.5,0.5 0,3.6Q-0.5,0.5 -3.6,0Q-0.5,-0.5 0,-3.6Z"/></g><g transform="translate(359,50)"><path class="s e" style="animation-delay:-4.53s" opacity="0.5" d="M0,-3.6Q0.5,-0.5 3.6,0Q0.5,0.5 0,3.6Q-0.5,0.5 -3.6,0Q-0.5,-0.5 0,-3.6Z"/></g><g transform="translate(359,71)"><path class="s e" style="animation-delay:-4.53s" opacity="0.5" d="M0,-3.6Q0.5,-0.5 3.6,0Q0.5,0.5 0,3.6Q-0.5,0.5 -3.6,0Q-0.5,-0.5 0,-3.6Z"/></g><g transform="translate(359,92)"><path class="s e" style="animation-delay:-4.53s" opacity="0.5" d="M0,-3.6Q0.5,-0.5 3.6,0Q0.5,0.5 0,3.6Q-0.5,0.5 -3.6,0Q-0.5,-0.5 0,-3.6Z"/></g><g transform="translate(359,113)"><path class="s e" style="animation-delay:-4.53s" opacity="0.5" d="M0,-3.6Q0.5,-0.5 3.6,0Q0.5,0.5 0,3.6Q-0.5,0.5 -3.6,0Q-0.5,-0.5 0,-3.6Z"/></g><g transform="translate(359,134)"><path class="s e" style="animation-delay:-4.53s" opacity="0.5" d="M0,-3.6Q0.5,-0.5 3.6,0Q0.5,0.5 0,3.6Q-0.5,0.5 -3.6,0Q-0.5,-0.5 0,-3.6Z"/></g><g transform="translate(359,155)"><path class="s e" style="animation-delay:-4.53s" opacity="0.5" d="M0,-3.6Q0.5,-0.5 3.6,0Q0.5,0.5 0,3.6Q-0.5,0.5 -3.6,0Q-0.5,-0.5 0,-3.6Z"/></g><g transform="translate(359,176)"><path class="s e" style="animation-delay:-4.53s" opacity="0.5" d="M0,-3.6Q0.5,-0.5 3.6,0Q0.5,0.5 0,3.6Q-0.5,0.5 -3.6,0Q-0.5,-0.5 0,-3.6Z"/></g><g transform="translate(380,50)"><path class="s e" style="animation-delay:-4.83s" opacity="0.5" d="M0,-3.6Q0.5,-0.5 3.6,0Q0.5,0.5 0,3.6Q-0.5,0.5 -3.6,0Q-0.5,-0.5 0,-3.6Z"/></g><g transform="translate(380,71)"><path class="s e" style="animation-delay:-4.83s" opacity="0.5" d="M0,-3.6Q0.5,-0.5 3.6,0Q0.5,0.5 0,3.6Q-0.5,0.5 -3.6,0Q-0.5,-0.5 0,-3.6Z"/></g><g transform="translate(380,92)"><path class="s e" style="animation-delay:-4.83s" opacity="0.5" d="M0,-3.6Q0.5,-0.5 3.6,0Q0.5,0.5 0,3.6Q-0.5,0.5 -3.6,0Q-0.5,-0.5 0,-3.6Z"/></g><g transform="translate(380,113)"><path class="s e" style="animation-delay:-4.83s" opacity="0.5" d="M0,-3.6Q0.5,-0.5 3.6,0Q0.5,0.5 0,3.6Q-0.5,0.5 -3.6,0Q-0.5,-0.5 0,-3.6Z"/></g><g transform="translate(380,134)"><path class="s e" style="animation-delay:-4.83s" opacity="0.5" d="M0,-3.6Q0.5,-0.5 3.6,0Q0.5,0.5 0,3.6Q-0.5,0.5 -3.6,0Q-0.5,-0.5 0,-3.6Z"/></g><g transform="translate(380,155)"><path class="s e" style="animation-delay:-4.83s" opacity="0.5" d="M0,-3.6Q0.5,-0.5 3.6,0Q0.5,0.5 0,3.6Q-0.5,0.5 -3.6,0Q-0.5,-0.5 0,-3.6Z"/></g><g transform="translate(380,176)"><path class="s e" style="animation-delay:-4.83s" opacity="0.5" d="M0,-3.6Q0.5,-0.5 3.6,0Q0.5,0.5 0,3.6Q-0.5,0.5 -3.6,0Q-0.5,-0.5 0,-3.6Z"/></g><g transform="translate(401,50)"><path class="s e" style="animation-delay:-5.13s" opacity="0.5" d="M0,-3.6Q0.5,-0.5 3.6,0Q0.5,0.5 0,3.6Q-0.5,0.5 -3.6,0Q-0.5,-0.5 0,-3.6Z"/></g><g transform="translate(401,71)"><path class="s e" style="animation-delay:-5.13s" opacity="0.5" d="M0,-3.6Q0.5,-0.5 3.6,0Q0.5,0.5 0,3.6Q-0.5,0.5 -3.6,0Q-0.5,-0.5 0,-3.6Z"/></g><g transform="translate(401,92)"><path class="s e" style="animation-delay:-5.13s" opacity="0.5" d="M0,-3.6Q0.5,-0.5 3.6,0Q0.5,0.5 0,3.6Q-0.5,0.5 -3.6,0Q-0.5,-0.5 0,-3.6Z"/></g><g transform="translate(401,113)"><path class="s e" style="animation-delay:-5.13s" opacity="0.5" d="M0,-3.6Q0.5,-0.5 3.6,0Q0.5,0.5 0,3.6Q-0.5,0.5 -3.6,0Q-0.5,-0.5 0,-3.6Z"/></g><g transform="translate(401,134)"><path class="s e" style="animation-delay:-5.13s" opacity="0.5" d="M0,-3.6Q0.5,-0.5 3.6,0Q0.5,0.5 0,3.6Q-0.5,0.5 -3.6,0Q-0.5,-0.5 0,-3.6Z"/></g><g transform="translate(401,155)"><path class="s e" style="animation-delay:-5.13s" opacity="0.5" d="M0,-3.6Q0.5,-0.5 3.6,0Q0.5,0.5 0,3.6Q-0.5,0.5 -3.6,0Q-0.5,-0.5 0,-3.6Z"/></g><g transform="translate(401,176)"><path class="s e" style="animation-delay:-5.13s" opacity="0.5" d="M0,-3.6Q0.5,-0.5 3.6,0Q0.5,0.5 0,3.6Q-0.5,0.5 -3.6,0Q-0.5,-0.5 0,-3.6Z"/></g><g transform="translate(422,50)"><path class="s e" style="animation-delay:-5.43s" opacity="0.5" d="M0,-3.6Q0.5,-0.5 3.6,0Q0.5,0.5 0,3.6Q-0.5,0.5 -3.6,0Q-0.5,-0.5 0,-3.6Z"/></g><g transform="translate(422,71)"><path class="s e" style="animation-delay:-5.43s" opacity="0.5" d="M0,-3.6Q0.5,-0.5 3.6,0Q0.5,0.5 0,3.6Q-0.5,0.5 -3.6,0Q-0.5,-0.5 0,-3.6Z"/></g><g transform="translate(422,92)"><path class="s e" style="animation-delay:-5.43s" opacity="0.5" d="M0,-3.6Q0.5,-0.5 3.6,0Q0.5,0.5 0,3.6Q-0.5,0.5 -3.6,0Q-0.5,-0.5 0,-3.6Z"/></g><g transform="translate(422,113)"><path class="s e" style="animation-delay:-5.43s" opacity="0.5" d="M0,-3.6Q0.5,-0.5 3.6,0Q0.5,0.5 0,3.6Q-0.5,0.5 -3.6,0Q-0.5,-0.5 0,-3.6Z"/></g><g transform="translate(422,134)"><path class="s e" style="animation-delay:-5.43s" opacity="0.5" d="M0,-3.6Q0.5,-0.5 3.6,0Q0.5,0.5 0,3.6Q-0.5,0.5 -3.6,0Q-0.5,-0.5 0,-3.6Z"/></g><g transform="translate(422,155)"><path class="s e" style="animation-delay:-5.43s" opacity="0.5" d="M0,-3.6Q0.5,-0.5 3.6,0Q0.5,0.5 0,3.6Q-0.5,0.5 -3.6,0Q-0.5,-0.5 0,-3.6Z"/></g><g transform="translate(422,176)"><path class="s e" style="animation-delay:-5.43s" opacity="0.5" d="M0,-3.6Q0.5,-0.5 3.6,0Q0.5,0.5 0,3.6Q-0.5,0.5 -3.6,0Q-0.5,-0.5 0,-3.6Z"/></g><g transform="translate(443,50)"><path class="s e" style="animation-delay:-5.74s" opacity="0.5" d="M0,-3.6Q0.5,-0.5 3.6,0Q0.5,0.5 0,3.6Q-0.5,0.5 -3.6,0Q-0.5,-0.5 0,-3.6Z"/></g><g transform="translate(443,71)"><path class="s e" style="animation-delay:-5.74s" opacity="0.5" d="M0,-3.6Q0.5,-0.5 3.6,0Q0.5,0.5 0,3.6Q-0.5,0.5 -3.6,0Q-0.5,-0.5 0,-3.6Z"/></g><g transform="translate(443,92)"><path class="s e" style="animation-delay:-5.74s" opacity="0.5" d="M0,-3.6Q0.5,-0.5 3.6,0Q0.5,0.5 0,3.6Q-0.5,0.5 -3.6,0Q-0.5,-0.5 0,-3.6Z"/></g><g transform="translate(443,113)"><path class="s e" style="animation-delay:-5.74s" opacity="0.5" d="M0,-3.6Q0.5,-0.5 3.6,0Q0.5,0.5 0,3.6Q-0.5,0.5 -3.6,0Q-0.5,-0.5 0,-3.6Z"/></g><g transform="translate(443,134)"><path class="s e" style="animation-delay:-5.74s" opacity="0.5" d="M0,-3.6Q0.5,-0.5 3.6,0Q0.5,0.5 0,3.6Q-0.5,0.5 -3.6,0Q-0.5,-0.5 0,-3.6Z"/></g><g transform="translate(443,155)"><path class="s e" style="animation-delay:-5.74s" opacity="0.5" d="M0,-3.6Q0.5,-0.5 3.6,0Q0.5,0.5 0,3.6Q-0.5,0.5 -3.6,0Q-0.5,-0.5 0,-3.6Z"/></g><g transform="translate(443,176)"><path class="s e" style="animation-delay:-5.74s" opacity="0.5" d="M0,-3.6Q0.5,-0.5 3.6,0Q0.5,0.5 0,3.6Q-0.5,0.5 -3.6,0Q-0.5,-0.5 0,-3.6Z"/></g><g transform="translate(464,50)"><path class="s e" style="animation-delay:-6.04s" opacity="0.5" d="M0,-3.6Q0.5,-0.5 3.6,0Q0.5,0.5 0,3.6Q-0.5,0.5 -3.6,0Q-0.5,-0.5 0,-3.6Z"/></g><g transform="translate(464,71)"><path class="s e" style="animation-delay:-6.04s" opacity="0.5" d="M0,-3.6Q0.5,-0.5 3.6,0Q0.5,0.5 0,3.6Q-0.5,0.5 -3.6,0Q-0.5,-0.5 0,-3.6Z"/></g><g transform="translate(464,92)"><path class="s e" style="animation-delay:-6.04s" opacity="0.5" d="M0,-3.6Q0.5,-0.5 3.6,0Q0.5,0.5 0,3.6Q-0.5,0.5 -3.6,0Q-0.5,-0.5 0,-3.6Z"/></g><g transform="translate(464,113)"><path class="s e" style="animation-delay:-6.04s" opacity="0.5" d="M0,-3.6Q0.5,-0.5 3.6,0Q0.5,0.5 0,3.6Q-0.5,0.5 -3.6,0Q-0.5,-0.5 0,-3.6Z"/></g><g transform="translate(464,134)"><path class="s e" style="animation-delay:-6.04s" opacity="0.5" d="M0,-3.6Q0.5,-0.5 3.6,0Q0.5,0.5 0,3.6Q-0.5,0.5 -3.6,0Q-0.5,-0.5 0,-3.6Z"/></g><g transform="translate(464,155)"><path class="s e" style="animation-delay:-6.04s" opacity="0.5" d="M0,-3.6Q0.5,-0.5 3.6,0Q0.5,0.5 0,3.6Q-0.5,0.5 -3.6,0Q-0.5,-0.5 0,-3.6Z"/></g><g transform="translate(464,176)"><path class="s e" style="animation-delay:-6.04s" opacity="0.5" d="M0,-3.6Q0.5,-0.5 3.6,0Q0.5,0.5 0,3.6Q-0.5,0.5 -3.6,0Q-0.5,-0.5 0,-3.6Z"/></g><g transform="translate(485,50)"><path class="s e" style="animation-delay:-6.34s" opacity="0.5" d="M0,-3.6Q0.5,-0.5 3.6,0Q0.5,0.5 0,3.6Q-0.5,0.5 -3.6,0Q-0.5,-0.5 0,-3.6Z"/></g><g transform="translate(485,71)"><path class="s e" style="animation-delay:-6.34s" opacity="0.5" d="M0,-3.6Q0.5,-0.5 3.6,0Q0.5,0.5 0,3.6Q-0.5,0.5 -3.6,0Q-0.5,-0.5 0,-3.6Z"/></g><g transform="translate(485,92)"><path class="s e" style="animation-delay:-6.34s" opacity="0.5" d="M0,-3.6Q0.5,-0.5 3.6,0Q0.5,0.5 0,3.6Q-0.5,0.5 -3.6,0Q-0.5,-0.5 0,-3.6Z"/></g><g transform="translate(485,113)"><path class="s e" style="animation-delay:-6.34s" opacity="0.5" d="M0,-3.6Q0.5,-0.5 3.6,0Q0.5,0.5 0,3.6Q-0.5,0.5 -3.6,0Q-0.5,-0.5 0,-3.6Z"/></g><g transform="translate(485,134)"><path class="s e" style="animation-delay:-6.34s" opacity="0.5" d="M0,-3.6Q0.5,-0.5 3.6,0Q0.5,0.5 0,3.6Q-0.5,0.5 -3.6,0Q-0.5,-0.5 0,-3.6Z"/></g><g transform="translate(485,155)"><path class="s e" style="animation-delay:-6.34s" opacity="0.5" d="M0,-3.6Q0.5,-0.5 3.6,0Q0.5,0.5 0,3.6Q-0.5,0.5 -3.6,0Q-0.5,-0.5 0,-3.6Z"/></g><g transform="translate(485,176)"><path class="s e" style="animation-delay:-6.34s" opacity="0.5" d="M0,-3.6Q0.5,-0.5 3.6,0Q0.5,0.5 0,3.6Q-0.5,0.5 -3.6,0Q-0.5,-0.5 0,-3.6Z"/></g><g transform="translate(506,50)"><path class="s e" style="animation-delay:-6.64s" opacity="0.5" d="M0,-3.6Q0.5,-0.5 3.6,0Q0.5,0.5 0,3.6Q-0.5,0.5 -3.6,0Q-0.5,-0.5 0,-3.6Z"/></g><g transform="translate(506,71)"><path class="s e" style="animation-delay:-6.64s" opacity="0.5" d="M0,-3.6Q0.5,-0.5 3.6,0Q0.5,0.5 0,3.6Q-0.5,0.5 -3.6,0Q-0.5,-0.5 0,-3.6Z"/></g><g transform="translate(506,92)"><path class="s e" style="animation-delay:-6.64s" opacity="0.5" d="M0,-3.6Q0.5,-0.5 3.6,0Q0.5,0.5 0,3.6Q-0.5,0.5 -3.6,0Q-0.5,-0.5 0,-3.6Z"/></g><g transform="translate(506,113)"><path class="s e" style="animation-delay:-6.64s" opacity="0.5" d="M0,-3.6Q0.5,-0.5 3.6,0Q0.5,0.5 0,3.6Q-0.5,0.5 -3.6,0Q-0.5,-0.5 0,-3.6Z"/></g><g transform="translate(506,134)"><path class="s e" style="animation-delay:-6.64s" opacity="0.5" d="M0,-3.6Q0.5,-0.5 3.6,0Q0.5,0.5 0,3.6Q-0.5,0.5 -3.6,0Q-0.5,-0.5 0,-3.6Z"/></g><g transform="translate(506,155)"><path class="s e" style="animation-delay:-6.64s" opacity="0.5" d="M0,-3.6Q0.5,-0.5 3.6,0Q0.5,0.5 0,3.6Q-0.5,0.5 -3.6,0Q-0.5,-0.5 0,-3.6Z"/></g><g transform="translate(506,176)"><path class="s e" style="animation-delay:-6.64s" opacity="0.5" d="M0,-3.6Q0.5,-0.5 3.6,0Q0.5,0.5 0,3.6Q-0.5,0.5 -3.6,0Q-0.5,-0.5 0,-3.6Z"/></g><g transform="translate(527,50)"><path class="s e" style="animation-delay:-6.94s" opacity="0.5" d="M0,-3.6Q0.5,-0.5 3.6,0Q0.5,0.5 0,3.6Q-0.5,0.5 -3.6,0Q-0.5,-0.5 0,-3.6Z"/></g><g transform="translate(527,71)"><path class="s e" style="animation-delay:-6.94s" opacity="0.5" d="M0,-3.6Q0.5,-0.5 3.6,0Q0.5,0.5 0,3.6Q-0.5,0.5 -3.6,0Q-0.5,-0.5 0,-3.6Z"/></g><g transform="translate(527,92)"><path class="s e" style="animation-delay:-6.94s" opacity="0.5" d="M0,-3.6Q0.5,-0.5 3.6,0Q0.5,0.5 0,3.6Q-0.5,0.5 -3.6,0Q-0.5,-0.5 0,-3.6Z"/></g><g transform="translate(527,113)"><path class="s e" style="animation-delay:-6.94s" opacity="0.5" d="M0,-3.6Q0.5,-0.5 3.6,0Q0.5,0.5 0,3.6Q-0.5,0.5 -3.6,0Q-0.5,-0.5 0,-3.6Z"/></g><g transform="translate(527,134)"><path class="s e" style="animation-delay:-6.94s" opacity="0.5" d="M0,-3.6Q0.5,-0.5 3.6,0Q0.5,0.5 0,3.6Q-0.5,0.5 -3.6,0Q-0.5,-0.5 0,-3.6Z"/></g><g transform="translate(527,155)"><path class="s e" style="animation-delay:-6.94s" opacity="0.5" d="M0,-3.6Q0.5,-0.5 3.6,0Q0.5,0.5 0,3.6Q-0.5,0.5 -3.6,0Q-0.5,-0.5 0,-3.6Z"/></g><g transform="translate(527,176)"><path class="s e" style="animation-delay:-6.94s" opacity="0.5" d="M0,-3.6Q0.5,-0.5 3.6,0Q0.5,0.5 0,3.6Q-0.5,0.5 -3.6,0Q-0.5,-0.5 0,-3.6Z"/></g><g transform="translate(548,50)"><path class="s e" style="animation-delay:-7.25s" opacity="0.5" d="M0,-3.6Q0.5,-0.5 3.6,0Q0.5,0.5 0,3.6Q-0.5,0.5 -3.6,0Q-0.5,-0.5 0,-3.6Z"/></g><g transform="translate(548,71)"><path class="s e" style="animation-delay:-7.25s" opacity="0.5" d="M0,-3.6Q0.5,-0.5 3.6,0Q0.5,0.5 0,3.6Q-0.5,0.5 -3.6,0Q-0.5,-0.5 0,-3.6Z"/></g><g transform="translate(548,92)"><path class="s e" style="animation-delay:-7.25s" opacity="0.5" d="M0,-3.6Q0.5,-0.5 3.6,0Q0.5,0.5 0,3.6Q-0.5,0.5 -3.6,0Q-0.5,-0.5 0,-3.6Z"/></g><g transform="translate(548,113)"><path class="s e" style="animation-delay:-7.25s" opacity="0.5" d="M0,-3.6Q0.5,-0.5 3.6,0Q0.5,0.5 0,3.6Q-0.5,0.5 -3.6,0Q-0.5,-0.5 0,-3.6Z"/></g><g transform="translate(548,134)"><path class="s e" style="animation-delay:-7.25s" opacity="0.5" d="M0,-3.6Q0.5,-0.5 3.6,0Q0.5,0.5 0,3.6Q-0.5,0.5 -3.6,0Q-0.5,-0.5 0,-3.6Z"/></g><g transform="translate(548,155)"><path class="s e" style="animation-delay:-7.25s" opacity="0.5" d="M0,-3.6Q0.5,-0.5 3.6,0Q0.5,0.5 0,3.6Q-0.5,0.5 -3.6,0Q-0.5,-0.5 0,-3.6Z"/></g><g transform="translate(548,176)"><path class="s e" style="animation-delay:-7.25s" opacity="0.5" d="M0,-3.6Q0.5,-0.5 3.6,0Q0.5,0.5 0,3.6Q-0.5,0.5 -3.6,0Q-0.5,-0.5 0,-3.6Z"/></g><g transform="translate(569,50)"><path class="s e" style="animation-delay:-7.55s" opacity="0.5" d="M0,-3.6Q0.5,-0.5 3.6,0Q0.5,0.5 0,3.6Q-0.5,0.5 -3.6,0Q-0.5,-0.5 0,-3.6Z"/></g><g transform="translate(569,71)"><path class="s e" style="animation-delay:-7.55s" opacity="0.5" d="M0,-3.6Q0.5,-0.5 3.6,0Q0.5,0.5 0,3.6Q-0.5,0.5 -3.6,0Q-0.5,-0.5 0,-3.6Z"/></g><g transform="translate(569,92)"><path class="s e" style="animation-delay:-7.55s" opacity="0.5" d="M0,-3.6Q0.5,-0.5 3.6,0Q0.5,0.5 0,3.6Q-0.5,0.5 -3.6,0Q-0.5,-0.5 0,-3.6Z"/></g><g transform="translate(569,113)"><path class="s e" style="animation-delay:-7.55s" opacity="0.5" d="M0,-3.6Q0.5,-0.5 3.6,0Q0.5,0.5 0,3.6Q-0.5,0.5 -3.6,0Q-0.5,-0.5 0,-3.6Z"/></g><g transform="translate(569,134)"><path class="s e" style="animation-delay:-7.55s" opacity="0.5" d="M0,-3.6Q0.5,-0.5 3.6,0Q0.5,0.5 0,3.6Q-0.5,0.5 -3.6,0Q-0.5,-0.5 0,-3.6Z"/></g><g transform="translate(569,155)"><path class="s e" style="animation-delay:-7.55s" opacity="0.5" d="M0,-3.6Q0.5,-0.5 3.6,0Q0.5,0.5 0,3.6Q-0.5,0.5 -3.6,0Q-0.5,-0.5 0,-3.6Z"/></g><g transform="translate(569,176)"><path class="s e" style="animation-delay:-7.55s" opacity="0.5" d="M0,-3.6Q0.5,-0.5 3.6,0Q0.5,0.5 0,3.6Q-0.5,0.5 -3.6,0Q-0.5,-0.5 0,-3.6Z"/></g><g transform="translate(590,50)"><path class="s e" style="animation-delay:-7.85s" opacity="0.5" d="M0,-3.6Q0.5,-0.5 3.6,0Q0.5,0.5 0,3.6Q-0.5,0.5 -3.6,0Q-0.5,-0.5 0,-3.6Z"/></g><g transform="translate(590,71)"><path class="s e" style="animation-delay:-7.85s" opacity="0.5" d="M0,-3.6Q0.5,-0.5 3.6,0Q0.5,0.5 0,3.6Q-0.5,0.5 -3.6,0Q-0.5,-0.5 0,-3.6Z"/></g><g transform="translate(590,92)"><path class="s e" style="animation-delay:-7.85s" opacity="0.5" d="M0,-3.6Q0.5,-0.5 3.6,0Q0.5,0.5 0,3.6Q-0.5,0.5 -3.6,0Q-0.5,-0.5 0,-3.6Z"/></g><g transform="translate(590,113)"><path class="s e" style="animation-delay:-7.85s" opacity="0.5" d="M0,-3.6Q0.5,-0.5 3.6,0Q0.5,0.5 0,3.6Q-0.5,0.5 -3.6,0Q-0.5,-0.5 0,-3.6Z"/></g><g transform="translate(590,134)"><path class="s e" style="animation-delay:-7.85s" opacity="0.5" d="M0,-3.6Q0.5,-0.5 3.6,0Q0.5,0.5 0,3.6Q-0.5,0.5 -3.6,0Q-0.5,-0.5 0,-3.6Z"/></g><g transform="translate(590,155)"><path class="s e" style="animation-delay:-7.85s" opacity="0.5" d="M0,-3.6Q0.5,-0.5 3.6,0Q0.5,0.5 0,3.6Q-0.5,0.5 -3.6,0Q-0.5,-0.5 0,-3.6Z"/></g><g transform="translate(590,176)"><path class="s e" style="animation-delay:-7.85s" opacity="0.5" d="M0,-3.6Q0.5,-0.5 3.6,0Q0.5,0.5 0,3.6Q-0.5,0.5 -3.6,0Q-0.5,-0.5 0,-3.6Z"/></g><g transform="translate(611,50)"><path class="s e" style="animation-delay:-8.15s" opacity="0.5" d="M0,-3.6Q0.5,-0.5 3.6,0Q0.5,0.5 0,3.6Q-0.5,0.5 -3.6,0Q-0.5,-0.5 0,-3.6Z"/></g><g transform="translate(611,71)"><path class="s e" style="animation-delay:-8.15s" opacity="0.5" d="M0,-3.6Q0.5,-0.5 3.6,0Q0.5,0.5 0,3.6Q-0.5,0.5 -3.6,0Q-0.5,-0.5 0,-3.6Z"/></g><g transform="translate(611,92)"><path class="s e" style="animation-delay:-8.15s" opacity="0.5" d="M0,-3.6Q0.5,-0.5 3.6,0Q0.5,0.5 0,3.6Q-0.5,0.5 -3.6,0Q-0.5,-0.5 0,-3.6Z"/></g><g transform="translate(611,113)"><path class="s e" style="animation-delay:-8.15s" opacity="0.5" d="M0,-3.6Q0.5,-0.5 3.6,0Q0.5,0.5 0,3.6Q-0.5,0.5 -3.6,0Q-0.5,-0.5 0,-3.6Z"/></g><g transform="translate(611,134)"><path class="s e" style="animation-delay:-8.15s" opacity="0.5" d="M0,-3.6Q0.5,-0.5 3.6,0Q0.5,0.5 0,3.6Q-0.5,0.5 -3.6,0Q-0.5,-0.5 0,-3.6Z"/></g><g transform="translate(611,155)"><path class="s e" style="animation-delay:-8.15s" opacity="0.5" d="M0,-3.6Q0.5,-0.5 3.6,0Q0.5,0.5 0,3.6Q-0.5,0.5 -3.6,0Q-0.5,-0.5 0,-3.6Z"/></g><g transform="translate(611,176)"><path class="s e" style="animation-delay:-8.15s" opacity="0.5" d="M0,-3.6Q0.5,-0.5 3.6,0Q0.5,0.5 0,3.6Q-0.5,0.5 -3.6,0Q-0.5,-0.5 0,-3.6Z"/></g><g transform="translate(632,50)"><path class="s e" style="animation-delay:-8.45s" opacity="0.5" d="M0,-3.6Q0.5,-0.5 3.6,0Q0.5,0.5 0,3.6Q-0.5,0.5 -3.6,0Q-0.5,-0.5 0,-3.6Z"/></g><g transform="translate(632,71)"><path class="s e" style="animation-delay:-8.45s" opacity="0.5" d="M0,-3.6Q0.5,-0.5 3.6,0Q0.5,0.5 0,3.6Q-0.5,0.5 -3.6,0Q-0.5,-0.5 0,-3.6Z"/></g><g transform="translate(632,92)"><path class="s e" style="animation-delay:-8.45s" opacity="0.5" d="M0,-3.6Q0.5,-0.5 3.6,0Q0.5,0.5 0,3.6Q-0.5,0.5 -3.6,0Q-0.5,-0.5 0,-3.6Z"/></g><g transform="translate(632,113)"><path class="s e" style="animation-delay:-8.45s" opacity="0.5" d="M0,-3.6Q0.5,-0.5 3.6,0Q0.5,0.5 0,3.6Q-0.5,0.5 -3.6,0Q-0.5,-0.5 0,-3.6Z"/></g><g transform="translate(632,134)"><path class="s e" style="animation-delay:-8.45s" opacity="0.5" d="M0,-3.6Q0.5,-0.5 3.6,0Q0.5,0.5 0,3.6Q-0.5,0.5 -3.6,0Q-0.5,-0.5 0,-3.6Z"/></g><g transform="translate(632,155)"><path class="s e" style="animation-delay:-8.45s" opacity="0.5" d="M0,-3.6Q0.5,-0.5 3.6,0Q0.5,0.5 0,3.6Q-0.5,0.5 -3.6,0Q-0.5,-0.5 0,-3.6Z"/></g><g transform="translate(632,176)"><path class="s e" style="animation-delay:-8.45s" opacity="0.5" d="M0,-3.6Q0.5,-0.5 3.6,0Q0.5,0.5 0,3.6Q-0.5,0.5 -3.6,0Q-0.5,-0.5 0,-3.6Z"/></g><g transform="translate(653,50)"><path class="s e" style="animation-delay:-8.75s" opacity="0.5" d="M0,-3.6Q0.5,-0.5 3.6,0Q0.5,0.5 0,3.6Q-0.5,0.5 -3.6,0Q-0.5,-0.5 0,-3.6Z"/></g><g transform="translate(653,71)"><path class="s e" style="animation-delay:-8.75s" opacity="0.5" d="M0,-3.6Q0.5,-0.5 3.6,0Q0.5,0.5 0,3.6Q-0.5,0.5 -3.6,0Q-0.5,-0.5 0,-3.6Z"/></g><g transform="translate(653,92)"><path class="s e" style="animation-delay:-8.75s" opacity="0.5" d="M0,-3.6Q0.5,-0.5 3.6,0Q0.5,0.5 0,3.6Q-0.5,0.5 -3.6,0Q-0.5,-0.5 0,-3.6Z"/></g><g transform="translate(653,113)"><path class="s e" style="animation-delay:-8.75s" opacity="0.5" d="M0,-3.6Q0.5,-0.5 3.6,0Q0.5,0.5 0,3.6Q-0.5,0.5 -3.6,0Q-0.5,-0.5 0,-3.6Z"/></g><g transform="translate(653,134)"><path class="s e" style="animation-delay:-8.75s" opacity="0.5" d="M0,-3.6Q0.5,-0.5 3.6,0Q0.5,0.5 0,3.6Q-0.5,0.5 -3.6,0Q-0.5,-0.5 0,-3.6Z"/></g><g transform="translate(653,155)"><path class="s e" style="animation-delay:-8.75s" opacity="0.5" d="M0,-3.6Q0.5,-0.5 3.6,0Q0.5,0.5 0,3.6Q-0.5,0.5 -3.6,0Q-0.5,-0.5 0,-3.6Z"/></g><g transform="translate(653,176)"><path class="s e" style="animation-delay:-8.75s" opacity="0.5" d="M0,-3.6Q0.5,-0.5 3.6,0Q0.5,0.5 0,3.6Q-0.5,0.5 -3.6,0Q-0.5,-0.5 0,-3.6Z"/></g><g transform="translate(674,50)"><path class="s e" style="animation-delay:-9.06s" opacity="0.5" d="M0,-3.6Q0.5,-0.5 3.6,0Q0.5,0.5 0,3.6Q-0.5,0.5 -3.6,0Q-0.5,-0.5 0,-3.6Z"/></g><g transform="translate(674,71)"><path class="s e" style="animation-delay:-9.06s" opacity="0.5" d="M0,-3.6Q0.5,-0.5 3.6,0Q0.5,0.5 0,3.6Q-0.5,0.5 -3.6,0Q-0.5,-0.5 0,-3.6Z"/></g><g transform="translate(674,92)"><path class="s e" style="animation-delay:-9.06s" opacity="0.5" d="M0,-3.6Q0.5,-0.5 3.6,0Q0.5,0.5 0,3.6Q-0.5,0.5 -3.6,0Q-0.5,-0.5 0,-3.6Z"/></g><g transform="translate(674,113)"><path class="s f" style="animation-delay:-9.06s,-9.30s" opacity="0.92" d="M0,-8.5Q1.2,-1.2 8.5,0Q1.2,1.2 0,8.5Q-1.2,1.2 -8.5,0Q-1.2,-1.2 0,-8.5Z"/></g><g transform="translate(674,134)"><path class="s e" style="animation-delay:-9.06s" opacity="0.5" d="M0,-3.6Q0.5,-0.5 3.6,0Q0.5,0.5 0,3.6Q-0.5,0.5 -3.6,0Q-0.5,-0.5 0,-3.6Z"/></g><g transform="translate(674,155)"><path class="s e" style="animation-delay:-9.06s" opacity="0.5" d="M0,-3.6Q0.5,-0.5 3.6,0Q0.5,0.5 0,3.6Q-0.5,0.5 -3.6,0Q-0.5,-0.5 0,-3.6Z"/></g><g transform="translate(674,176)"><path class="s e" style="animation-delay:-9.06s" opacity="0.5" d="M0,-3.6Q0.5,-0.5 3.6,0Q0.5,0.5 0,3.6Q-0.5,0.5 -3.6,0Q-0.5,-0.5 0,-3.6Z"/></g><g transform="translate(695,50)"><path class="s e" style="animation-delay:-9.36s" opacity="0.5" d="M0,-3.6Q0.5,-0.5 3.6,0Q0.5,0.5 0,3.6Q-0.5,0.5 -3.6,0Q-0.5,-0.5 0,-3.6Z"/></g><g transform="translate(695,71)"><path class="s f" style="animation-delay:-9.36s,-6.40s" opacity="0.92" d="M0,-8.5Q1.2,-1.2 8.5,0Q1.2,1.2 0,8.5Q-1.2,1.2 -8.5,0Q-1.2,-1.2 0,-8.5Z"/></g><g transform="translate(695,92)"><path class="s f" style="animation-delay:-9.36s,-8.50s" opacity="0.85" d="M0,-7.0Q1.0,-1.0 7.0,0Q1.0,1.0 0,7.0Q-1.0,1.0 -7.0,0Q-1.0,-1.0 0,-7.0Z"/></g><g transform="translate(695,113)"><path class="s f" style="animation-delay:-9.36s,-10.60s" opacity="0.92" d="M0,-8.5Q1.2,-1.2 8.5,0Q1.2,1.2 0,8.5Q-1.2,1.2 -8.5,0Q-1.2,-1.2 0,-8.5Z"/></g><g transform="translate(695,134)"><path class="s e" style="animation-delay:-9.36s" opacity="0.5" d="M0,-3.6Q0.5,-0.5 3.6,0Q0.5,0.5 0,3.6Q-0.5,0.5 -3.6,0Q-0.5,-0.5 0,-3.6Z"/></g><g transform="translate(695,155)"><path class="s e" style="animation-delay:-9.36s" opacity="0.5" d="M0,-3.6Q0.5,-0.5 3.6,0Q0.5,0.5 0,3.6Q-0.5,0.5 -3.6,0Q-0.5,-0.5 0,-3.6Z"/></g><g transform="translate(695,176)"><path class="s f" style="animation-delay:-9.36s,-4.90s" opacity="0.92" d="M0,-8.5Q1.2,-1.2 8.5,0Q1.2,1.2 0,8.5Q-1.2,1.2 -8.5,0Q-1.2,-1.2 0,-8.5Z"/></g><g transform="translate(716,50)"><path class="s e" style="animation-delay:-9.66s" opacity="0.5" d="M0,-3.6Q0.5,-0.5 3.6,0Q0.5,0.5 0,3.6Q-0.5,0.5 -3.6,0Q-0.5,-0.5 0,-3.6Z"/></g><g transform="translate(716,71)"><path class="s e" style="animation-delay:-9.66s" opacity="0.5" d="M0,-3.6Q0.5,-0.5 3.6,0Q0.5,0.5 0,3.6Q-0.5,0.5 -3.6,0Q-0.5,-0.5 0,-3.6Z"/></g><g transform="translate(716,92)"><path class="s e" style="animation-delay:-9.66s" opacity="0.5" d="M0,-3.6Q0.5,-0.5 3.6,0Q0.5,0.5 0,3.6Q-0.5,0.5 -3.6,0Q-0.5,-0.5 0,-3.6Z"/></g><g transform="translate(716,113)"><path class="s e" style="animation-delay:-9.66s" opacity="0.5" d="M0,-3.6Q0.5,-0.5 3.6,0Q0.5,0.5 0,3.6Q-0.5,0.5 -3.6,0Q-0.5,-0.5 0,-3.6Z"/></g><g transform="translate(716,134)"><path class="s e" style="animation-delay:-9.66s" opacity="0.5" d="M0,-3.6Q0.5,-0.5 3.6,0Q0.5,0.5 0,3.6Q-0.5,0.5 -3.6,0Q-0.5,-0.5 0,-3.6Z"/></g><g transform="translate(716,155)"><path class="s e" style="animation-delay:-9.66s" opacity="0.5" d="M0,-3.6Q0.5,-0.5 3.6,0Q0.5,0.5 0,3.6Q-0.5,0.5 -3.6,0Q-0.5,-0.5 0,-3.6Z"/></g><g transform="translate(716,176)"><path class="s e" style="animation-delay:-9.66s" opacity="0.5" d="M0,-3.6Q0.5,-0.5 3.6,0Q0.5,0.5 0,3.6Q-0.5,0.5 -3.6,0Q-0.5,-0.5 0,-3.6Z"/></g><g transform="translate(737,50)"><path class="s e" style="animation-delay:-9.96s" opacity="0.5" d="M0,-3.6Q0.5,-0.5 3.6,0Q0.5,0.5 0,3.6Q-0.5,0.5 -3.6,0Q-0.5,-0.5 0,-3.6Z"/></g><g transform="translate(737,71)"><path class="s f" style="animation-delay:-9.96s,-9.00s" opacity="0.85" d="M0,-7.0Q1.0,-1.0 7.0,0Q1.0,1.0 0,7.0Q-1.0,1.0 -7.0,0Q-1.0,-1.0 0,-7.0Z"/></g><g transform="translate(737,92)"><path class="s e" style="animation-delay:-9.96s" opacity="0.5" d="M0,-3.6Q0.5,-0.5 3.6,0Q0.5,0.5 0,3.6Q-0.5,0.5 -3.6,0Q-0.5,-0.5 0,-3.6Z"/></g><g transform="translate(737,113)"><path class="s f" style="animation-delay:-9.96s,-1.20s" opacity="0.85" d="M0,-7.0Q1.0,-1.0 7.0,0Q1.0,1.0 0,7.0Q-1.0,1.0 -7.0,0Q-1.0,-1.0 0,-7.0Z"/></g><g transform="translate(737,134)"><path class="s e" style="animation-delay:-9.96s" opacity="0.5" d="M0,-3.6Q0.5,-0.5 3.6,0Q0.5,0.5 0,3.6Q-0.5,0.5 -3.6,0Q-0.5,-0.5 0,-3.6Z"/></g><g transform="translate(737,155)"><path class="s e" style="animation-delay:-9.96s" opacity="0.5" d="M0,-3.6Q0.5,-0.5 3.6,0Q0.5,0.5 0,3.6Q-0.5,0.5 -3.6,0Q-0.5,-0.5 0,-3.6Z"/></g><g transform="translate(737,176)"><path class="s e" style="animation-delay:-9.96s" opacity="0.5" d="M0,-3.6Q0.5,-0.5 3.6,0Q0.5,0.5 0,3.6Q-0.5,0.5 -3.6,0Q-0.5,-0.5 0,-3.6Z"/></g><g transform="translate(758,50)"><path class="s e" style="animation-delay:-10.26s" opacity="0.5" d="M0,-3.6Q0.5,-0.5 3.6,0Q0.5,0.5 0,3.6Q-0.5,0.5 -3.6,0Q-0.5,-0.5 0,-3.6Z"/></g><g transform="translate(758,71)"><path class="s e" style="animation-delay:-10.26s" opacity="0.5" d="M0,-3.6Q0.5,-0.5 3.6,0Q0.5,0.5 0,3.6Q-0.5,0.5 -3.6,0Q-0.5,-0.5 0,-3.6Z"/></g><g transform="translate(758,92)"><path class="s f" style="animation-delay:-10.26s,-0.40s" opacity="0.92" d="M0,-8.5Q1.2,-1.2 8.5,0Q1.2,1.2 0,8.5Q-1.2,1.2 -8.5,0Q-1.2,-1.2 0,-8.5Z"/></g><g transform="translate(758,113)"><path class="s f" style="animation-delay:-10.26s,-2.50s" opacity="1.0" d="M0,-10.0Q1.4,-1.4 10.0,0Q1.4,1.4 0,10.0Q-1.4,1.4 -10.0,0Q-1.4,-1.4 0,-10.0Z"/></g><g transform="translate(758,134)"><path class="s f" style="animation-delay:-10.26s,-4.60s" opacity="1.0" d="M0,-10.0Q1.4,-1.4 10.0,0Q1.4,1.4 0,10.0Q-1.4,1.4 -10.0,0Q-1.4,-1.4 0,-10.0Z"/></g><g transform="translate(758,155)"><path class="s f" style="animation-delay:-10.26s,-6.70s" opacity="1.0" d="M0,-10.0Q1.4,-1.4 10.0,0Q1.4,1.4 0,10.0Q-1.4,1.4 -10.0,0Q-1.4,-1.4 0,-10.0Z"/></g><g transform="translate(758,176)"><path class="s f" style="animation-delay:-10.26s,-8.80s" opacity="0.92" d="M0,-8.5Q1.2,-1.2 8.5,0Q1.2,1.2 0,8.5Q-1.2,1.2 -8.5,0Q-1.2,-1.2 0,-8.5Z"/></g><g transform="translate(779,50)"><path class="s e" style="animation-delay:-10.57s" opacity="0.5" d="M0,-3.6Q0.5,-0.5 3.6,0Q0.5,0.5 0,3.6Q-0.5,0.5 -3.6,0Q-0.5,-0.5 0,-3.6Z"/></g><g transform="translate(779,71)"><path class="s e" style="animation-delay:-10.57s" opacity="0.5" d="M0,-3.6Q0.5,-0.5 3.6,0Q0.5,0.5 0,3.6Q-0.5,0.5 -3.6,0Q-0.5,-0.5 0,-3.6Z"/></g><g transform="translate(779,92)"><path class="s f" style="animation-delay:-10.57s,-1.70s" opacity="1.0" d="M0,-10.0Q1.4,-1.4 10.0,0Q1.4,1.4 0,10.0Q-1.4,1.4 -10.0,0Q-1.4,-1.4 0,-10.0Z"/></g><g transform="translate(779,113)"><path class="s f" style="animation-delay:-10.57s,-3.80s" opacity="1.0" d="M0,-10.0Q1.4,-1.4 10.0,0Q1.4,1.4 0,10.0Q-1.4,1.4 -10.0,0Q-1.4,-1.4 0,-10.0Z"/></g><g transform="translate(779,134)"><path class="s f" style="animation-delay:-10.57s,-5.90s" opacity="0.92" d="M0,-8.5Q1.2,-1.2 8.5,0Q1.2,1.2 0,8.5Q-1.2,1.2 -8.5,0Q-1.2,-1.2 0,-8.5Z"/></g><g transform="translate(779,155)"><path class="s f" style="animation-delay:-10.57s,-8.00s" opacity="1.0" d="M0,-10.0Q1.4,-1.4 10.0,0Q1.4,1.4 0,10.0Q-1.4,1.4 -10.0,0Q-1.4,-1.4 0,-10.0Z"/></g><g transform="translate(779,176)"><path class="s e" style="animation-delay:-10.57s" opacity="0.5" d="M0,-3.6Q0.5,-0.5 3.6,0Q0.5,0.5 0,3.6Q-0.5,0.5 -3.6,0Q-0.5,-0.5 0,-3.6Z"/></g><g transform="translate(800,50)"><path class="s f" style="animation-delay:-10.87s,-10.80s" opacity="1.0" d="M0,-10.0Q1.4,-1.4 10.0,0Q1.4,1.4 0,10.0Q-1.4,1.4 -10.0,0Q-1.4,-1.4 0,-10.0Z"/></g><g transform="translate(800,71)"><path class="s f" style="animation-delay:-10.87s,-0.90s" opacity="1.0" d="M0,-10.0Q1.4,-1.4 10.0,0Q1.4,1.4 0,10.0Q-1.4,1.4 -10.0,0Q-1.4,-1.4 0,-10.0Z"/></g><g transform="translate(800,92)"><path class="s f" style="animation-delay:-10.87s,-3.00s" opacity="0.92" d="M0,-8.5Q1.2,-1.2 8.5,0Q1.2,1.2 0,8.5Q-1.2,1.2 -8.5,0Q-1.2,-1.2 0,-8.5Z"/></g><g transform="translate(800,113)"><path class="s e" style="animation-delay:-10.87s" opacity="0.5" d="M0,-3.6Q0.5,-0.5 3.6,0Q0.5,0.5 0,3.6Q-0.5,0.5 -3.6,0Q-0.5,-0.5 0,-3.6Z"/></g><g transform="translate(800,134)"><path class="s f" style="animation-delay:-10.87s,-7.20s" opacity="0.85" d="M0,-7.0Q1.0,-1.0 7.0,0Q1.0,1.0 0,7.0Q-1.0,1.0 -7.0,0Q-1.0,-1.0 0,-7.0Z"/></g><g transform="translate(800,155)"><path class="s e" style="animation-delay:-10.87s" opacity="0.5" d="M0,-3.6Q0.5,-0.5 3.6,0Q0.5,0.5 0,3.6Q-0.5,0.5 -3.6,0Q-0.5,-0.5 0,-3.6Z"/></g><g transform="translate(800,176)"><path class="s f" style="animation-delay:-10.87s,-11.40s" opacity="0.92" d="M0,-8.5Q1.2,-1.2 8.5,0Q1.2,1.2 0,8.5Q-1.2,1.2 -8.5,0Q-1.2,-1.2 0,-8.5Z"/></g><g transform="translate(821,50)"><path class="s e" style="animation-delay:-11.17s" opacity="0.5" d="M0,-3.6Q0.5,-0.5 3.6,0Q0.5,0.5 0,3.6Q-0.5,0.5 -3.6,0Q-0.5,-0.5 0,-3.6Z"/></g><g transform="translate(821,71)"><path class="s f" style="animation-delay:-11.17s,-2.20s" opacity="0.85" d="M0,-7.0Q1.0,-1.0 7.0,0Q1.0,1.0 0,7.0Q-1.0,1.0 -7.0,0Q-1.0,-1.0 0,-7.0Z"/></g><g transform="translate(821,92)"><path class="s e" style="animation-delay:-11.17s" opacity="0.5" d="M0,-3.6Q0.5,-0.5 3.6,0Q0.5,0.5 0,3.6Q-0.5,0.5 -3.6,0Q-0.5,-0.5 0,-3.6Z"/></g><g transform="translate(821,113)"><path class="s f" style="animation-delay:-11.17s,-6.40s" opacity="0.92" d="M0,-8.5Q1.2,-1.2 8.5,0Q1.2,1.2 0,8.5Q-1.2,1.2 -8.5,0Q-1.2,-1.2 0,-8.5Z"/></g><g transform="translate(821,134)"><path class="s e" style="animation-delay:-11.17s" opacity="0.5" d="M0,-3.6Q0.5,-0.5 3.6,0Q0.5,0.5 0,3.6Q-0.5,0.5 -3.6,0Q-0.5,-0.5 0,-3.6Z"/></g><g transform="translate(821,155)"><path class="s e" style="animation-delay:-11.17s" opacity="0.5" d="M0,-3.6Q0.5,-0.5 3.6,0Q0.5,0.5 0,3.6Q-0.5,0.5 -3.6,0Q-0.5,-0.5 0,-3.6Z"/></g><g transform="translate(821,176)"><path class="s f" style="animation-delay:-11.17s,-0.70s" opacity="0.92" d="M0,-8.5Q1.2,-1.2 8.5,0Q1.2,1.2 0,8.5Q-1.2,1.2 -8.5,0Q-1.2,-1.2 0,-8.5Z"/></g><g transform="translate(842,50)"><path class="s f" style="animation-delay:-11.47s,-1.40s" opacity="0.92" d="M0,-8.5Q1.2,-1.2 8.5,0Q1.2,1.2 0,8.5Q-1.2,1.2 -8.5,0Q-1.2,-1.2 0,-8.5Z"/></g><g transform="translate(842,71)"><path class="s f" style="animation-delay:-11.47s,-3.50s" opacity="0.92" d="M0,-8.5Q1.2,-1.2 8.5,0Q1.2,1.2 0,8.5Q-1.2,1.2 -8.5,0Q-1.2,-1.2 0,-8.5Z"/></g><g transform="translate(842,92)"><path class="s e" style="animation-delay:-11.47s" opacity="0.5" d="M0,-3.6Q0.5,-0.5 3.6,0Q0.5,0.5 0,3.6Q-0.5,0.5 -3.6,0Q-0.5,-0.5 0,-3.6Z"/></g><g transform="translate(842,113)"><path class="s f" style="animation-delay:-11.47s,-7.70s" opacity="0.85" d="M0,-7.0Q1.0,-1.0 7.0,0Q1.0,1.0 0,7.0Q-1.0,1.0 -7.0,0Q-1.0,-1.0 0,-7.0Z"/></g><g transform="translate(842,134)"><path class="s f" style="animation-delay:-11.47s,-9.80s" opacity="0.92" d="M0,-8.5Q1.2,-1.2 8.5,0Q1.2,1.2 0,8.5Q-1.2,1.2 -8.5,0Q-1.2,-1.2 0,-8.5Z"/></g><g transform="translate(842,155)"><path class="s f" style="animation-delay:-11.47s,-11.90s" opacity="0.92" d="M0,-8.5Q1.2,-1.2 8.5,0Q1.2,1.2 0,8.5Q-1.2,1.2 -8.5,0Q-1.2,-1.2 0,-8.5Z"/></g><g transform="translate(842,176)"><path class="s f" style="animation-delay:-11.47s,-2.00s" opacity="0.92" d="M0,-8.5Q1.2,-1.2 8.5,0Q1.2,1.2 0,8.5Q-1.2,1.2 -8.5,0Q-1.2,-1.2 0,-8.5Z"/></g><g transform="translate(863,50)"><path class="s e" style="animation-delay:-11.77s" opacity="0.5" d="M0,-3.6Q0.5,-0.5 3.6,0Q0.5,0.5 0,3.6Q-0.5,0.5 -3.6,0Q-0.5,-0.5 0,-3.6Z"/></g><g transform="translate(863,71)"><path class="s f" style="animation-delay:-11.77s,-4.80s" opacity="1.0" d="M0,-10.0Q1.4,-1.4 10.0,0Q1.4,1.4 0,10.0Q-1.4,1.4 -10.0,0Q-1.4,-1.4 0,-10.0Z"/></g><g transform="translate(863,92)"><path class="s f" style="animation-delay:-11.77s,-6.90s" opacity="0.92" d="M0,-8.5Q1.2,-1.2 8.5,0Q1.2,1.2 0,8.5Q-1.2,1.2 -8.5,0Q-1.2,-1.2 0,-8.5Z"/></g><g transform="translate(863,113)"><path class="s f" style="animation-delay:-11.77s,-9.00s" opacity="1.0" d="M0,-10.0Q1.4,-1.4 10.0,0Q1.4,1.4 0,10.0Q-1.4,1.4 -10.0,0Q-1.4,-1.4 0,-10.0Z"/></g><g transform="translate(863,134)"><path class="s e" style="animation-delay:-11.77s" opacity="0.5" d="M0,-3.6Q0.5,-0.5 3.6,0Q0.5,0.5 0,3.6Q-0.5,0.5 -3.6,0Q-0.5,-0.5 0,-3.6Z"/></g><g transform="translate(863,155)"><path class="s f" style="animation-delay:-11.77s,-1.20s" opacity="0.92" d="M0,-8.5Q1.2,-1.2 8.5,0Q1.2,1.2 0,8.5Q-1.2,1.2 -8.5,0Q-1.2,-1.2 0,-8.5Z"/></g><g transform="translate(863,176)"><path class="s f" style="animation-delay:-11.77s,-3.30s" opacity="1.0" d="M0,-10.0Q1.4,-1.4 10.0,0Q1.4,1.4 0,10.0Q-1.4,1.4 -10.0,0Q-1.4,-1.4 0,-10.0Z"/></g><g transform="translate(884,50)"><path class="s f" style="animation-delay:-12.08s,-4.00s" opacity="1.0" d="M0,-10.0Q1.4,-1.4 10.0,0Q1.4,1.4 0,10.0Q-1.4,1.4 -10.0,0Q-1.4,-1.4 0,-10.0Z"/></g><g transform="translate(884,71)"><path class="s f" style="animation-delay:-12.08s,-6.10s" opacity="1.0" d="M0,-10.0Q1.4,-1.4 10.0,0Q1.4,1.4 0,10.0Q-1.4,1.4 -10.0,0Q-1.4,-1.4 0,-10.0Z"/></g><g transform="translate(884,92)"><path class="s e" style="animation-delay:-12.08s" opacity="0.5" d="M0,-3.6Q0.5,-0.5 3.6,0Q0.5,0.5 0,3.6Q-0.5,0.5 -3.6,0Q-0.5,-0.5 0,-3.6Z"/></g><g transform="translate(884,113)"><path class="s f" style="animation-delay:-12.08s,-10.30s" opacity="0.85" d="M0,-7.0Q1.0,-1.0 7.0,0Q1.0,1.0 0,7.0Q-1.0,1.0 -7.0,0Q-1.0,-1.0 0,-7.0Z"/></g><g transform="translate(884,134)"><path class="s e" style="animation-delay:-12.08s" opacity="0.5" d="M0,-3.6Q0.5,-0.5 3.6,0Q0.5,0.5 0,3.6Q-0.5,0.5 -3.6,0Q-0.5,-0.5 0,-3.6Z"/></g><g transform="translate(884,155)"><path class="s e" style="animation-delay:-12.08s" opacity="0.5" d="M0,-3.6Q0.5,-0.5 3.6,0Q0.5,0.5 0,3.6Q-0.5,0.5 -3.6,0Q-0.5,-0.5 0,-3.6Z"/></g><g transform="translate(884,176)"><path class="s e" style="animation-delay:-12.08s" opacity="0.5" d="M0,-3.6Q0.5,-0.5 3.6,0Q0.5,0.5 0,3.6Q-0.5,0.5 -3.6,0Q-0.5,-0.5 0,-3.6Z"/></g><g transform="translate(905,50)"><path class="s e" style="animation-delay:-12.38s" opacity="0.5" d="M0,-3.6Q0.5,-0.5 3.6,0Q0.5,0.5 0,3.6Q-0.5,0.5 -3.6,0Q-0.5,-0.5 0,-3.6Z"/></g><g transform="translate(905,71)"><path class="s f" style="animation-delay:-12.38s,-7.40s" opacity="1.0" d="M0,-11.5Q1.6,-1.6 11.5,0Q1.6,1.6 0,11.5Q-1.6,1.6 -11.5,0Q-1.6,-1.6 0,-11.5Z"/></g><g transform="translate(905,92)"><path class="s f" style="animation-delay:-12.38s,-9.50s" opacity="0.92" d="M0,-8.5Q1.2,-1.2 8.5,0Q1.2,1.2 0,8.5Q-1.2,1.2 -8.5,0Q-1.2,-1.2 0,-8.5Z"/></g><g transform="translate(905,113)"><path class="s e" style="animation-delay:-12.38s" opacity="0.5" d="M0,-3.6Q0.5,-0.5 3.6,0Q0.5,0.5 0,3.6Q-0.5,0.5 -3.6,0Q-0.5,-0.5 0,-3.6Z"/></g><g transform="translate(905,134)"><path class="s e" style="animation-delay:-12.38s" opacity="0.5" d="M0,-3.6Q0.5,-0.5 3.6,0Q0.5,0.5 0,3.6Q-0.5,0.5 -3.6,0Q-0.5,-0.5 0,-3.6Z"/></g><g transform="translate(905,155)"><path class="s f" style="animation-delay:-12.38s,-3.80s" opacity="0.92" d="M0,-8.5Q1.2,-1.2 8.5,0Q1.2,1.2 0,8.5Q-1.2,1.2 -8.5,0Q-1.2,-1.2 0,-8.5Z"/></g><g transform="translate(905,176)"><path class="s e" style="animation-delay:-12.38s" opacity="0.5" d="M0,-3.6Q0.5,-0.5 3.6,0Q0.5,0.5 0,3.6Q-0.5,0.5 -3.6,0Q-0.5,-0.5 0,-3.6Z"/></g><g transform="translate(926,50)"><path class="s e" style="animation-delay:-12.68s" opacity="0.5" d="M0,-3.6Q0.5,-0.5 3.6,0Q0.5,0.5 0,3.6Q-0.5,0.5 -3.6,0Q-0.5,-0.5 0,-3.6Z"/></g><g transform="translate(926,71)"><path class="s f" style="animation-delay:-12.68s,-8.70s" opacity="1.0" d="M0,-10.0Q1.4,-1.4 10.0,0Q1.4,1.4 0,10.0Q-1.4,1.4 -10.0,0Q-1.4,-1.4 0,-10.0Z"/></g><g transform="translate(926,92)"><path class="s f" style="animation-delay:-12.68s,-10.80s" opacity="1.0" d="M0,-10.0Q1.4,-1.4 10.0,0Q1.4,1.4 0,10.0Q-1.4,1.4 -10.0,0Q-1.4,-1.4 0,-10.0Z"/></g><g transform="translate(926,113)"><path class="s f" style="animation-delay:-12.68s,-0.90s" opacity="1.0" d="M0,-11.5Q1.6,-1.6 11.5,0Q1.6,1.6 0,11.5Q-1.6,1.6 -11.5,0Q-1.6,-1.6 0,-11.5Z"/></g><g transform="translate(926,134)"><path class="s f" style="animation-delay:-12.68s,-3.00s" opacity="1.0" d="M0,-10.0Q1.4,-1.4 10.0,0Q1.4,1.4 0,10.0Q-1.4,1.4 -10.0,0Q-1.4,-1.4 0,-10.0Z"/></g><g transform="translate(926,155)"><path class="s f" style="animation-delay:-12.68s,-5.10s" opacity="1.0" d="M0,-10.0Q1.4,-1.4 10.0,0Q1.4,1.4 0,10.0Q-1.4,1.4 -10.0,0Q-1.4,-1.4 0,-10.0Z"/></g><g transform="translate(926,176)"><path class="s e" style="animation-delay:-12.68s" opacity="0.5" d="M0,-3.6Q0.5,-0.5 3.6,0Q0.5,0.5 0,3.6Q-0.5,0.5 -3.6,0Q-0.5,-0.5 0,-3.6Z"/></g><g transform="translate(947,50)"><path class="s e" style="animation-delay:-12.98s" opacity="0.5" d="M0,-3.6Q0.5,-0.5 3.6,0Q0.5,0.5 0,3.6Q-0.5,0.5 -3.6,0Q-0.5,-0.5 0,-3.6Z"/></g><g transform="translate(947,71)"><path class="s f" style="animation-delay:-12.98s,-10.00s" opacity="0.85" d="M0,-7.0Q1.0,-1.0 7.0,0Q1.0,1.0 0,7.0Q-1.0,1.0 -7.0,0Q-1.0,-1.0 0,-7.0Z"/></g><g transform="translate(947,92)"><path class="s f" style="animation-delay:-12.98s,-0.10s" opacity="1.0" d="M0,-11.5Q1.6,-1.6 11.5,0Q1.6,1.6 0,11.5Q-1.6,1.6 -11.5,0Q-1.6,-1.6 0,-11.5Z"/></g><g transform="translate(947,113)"><path class="s f" style="animation-delay:-12.98s,-2.20s" opacity="1.0" d="M0,-10.0Q1.4,-1.4 10.0,0Q1.4,1.4 0,10.0Q-1.4,1.4 -10.0,0Q-1.4,-1.4 0,-10.0Z"/></g><g transform="translate(947,134)"><path class="s e" style="animation-delay:-12.98s" opacity="0.5" d="M0,-3.6Q0.5,-0.5 3.6,0Q0.5,0.5 0,3.6Q-0.5,0.5 -3.6,0Q-0.5,-0.5 0,-3.6Z"/></g><g transform="translate(947,155)"><path class="s f" style="animation-delay:-12.98s,-6.40s" opacity="0.92" d="M0,-8.5Q1.2,-1.2 8.5,0Q1.2,1.2 0,8.5Q-1.2,1.2 -8.5,0Q-1.2,-1.2 0,-8.5Z"/></g><g transform="translate(947,176)"><path class="s e" style="animation-delay:-12.98s" opacity="0.5" d="M0,-3.6Q0.5,-0.5 3.6,0Q0.5,0.5 0,3.6Q-0.5,0.5 -3.6,0Q-0.5,-0.5 0,-3.6Z"/></g><g transform="translate(968,50)"><path class="s e" style="animation-delay:-13.28s" opacity="0.5" d="M0,-3.6Q0.5,-0.5 3.6,0Q0.5,0.5 0,3.6Q-0.5,0.5 -3.6,0Q-0.5,-0.5 0,-3.6Z"/></g><g transform="translate(968,71)"><path class="s e" style="animation-delay:-13.28s" opacity="0.5" d="M0,-3.6Q0.5,-0.5 3.6,0Q0.5,0.5 0,3.6Q-0.5,0.5 -3.6,0Q-0.5,-0.5 0,-3.6Z"/></g><g transform="translate(968,92)"><path class="s f" style="animation-delay:-13.28s,-1.40s" opacity="0.85" d="M0,-7.0Q1.0,-1.0 7.0,0Q1.0,1.0 0,7.0Q-1.0,1.0 -7.0,0Q-1.0,-1.0 0,-7.0Z"/></g><g transform="translate(968,113)"><path class="s f" style="animation-delay:-13.28s,-3.50s" opacity="1.0" d="M0,-11.5Q1.6,-1.6 11.5,0Q1.6,1.6 0,11.5Q-1.6,1.6 -11.5,0Q-1.6,-1.6 0,-11.5Z"/></g><g transform="translate(968,134)"><path class="s f" style="animation-delay:-13.28s,-5.60s" opacity="1.0" d="M0,-11.5Q1.6,-1.6 11.5,0Q1.6,1.6 0,11.5Q-1.6,1.6 -11.5,0Q-1.6,-1.6 0,-11.5Z"/></g><g transform="translate(968,155)"><path class="s f" style="animation-delay:-13.28s,-7.70s" opacity="1.0" d="M0,-11.5Q1.6,-1.6 11.5,0Q1.6,1.6 0,11.5Q-1.6,1.6 -11.5,0Q-1.6,-1.6 0,-11.5Z"/></g><g transform="translate(968,176)"><path class="s e" style="animation-delay:-13.28s" opacity="0.5" d="M0,-3.6Q0.5,-0.5 3.6,0Q0.5,0.5 0,3.6Q-0.5,0.5 -3.6,0Q-0.5,-0.5 0,-3.6Z"/></g><g transform="translate(989,50)"><path class="s e" style="animation-delay:-13.58s" opacity="0.5" d="M0,-3.6Q0.5,-0.5 3.6,0Q0.5,0.5 0,3.6Q-0.5,0.5 -3.6,0Q-0.5,-0.5 0,-3.6Z"/></g><g transform="translate(989,71)"><path class="s e" style="animation-delay:-13.58s" opacity="0.5" d="M0,-3.6Q0.5,-0.5 3.6,0Q0.5,0.5 0,3.6Q-0.5,0.5 -3.6,0Q-0.5,-0.5 0,-3.6Z"/></g><g transform="translate(989,92)"><path class="s e" style="animation-delay:-13.58s" opacity="0.5" d="M0,-3.6Q0.5,-0.5 3.6,0Q0.5,0.5 0,3.6Q-0.5,0.5 -3.6,0Q-0.5,-0.5 0,-3.6Z"/></g><g transform="translate(989,113)"><path class="s e" style="animation-delay:-13.58s" opacity="0.5" d="M0,-3.6Q0.5,-0.5 3.6,0Q0.5,0.5 0,3.6Q-0.5,0.5 -3.6,0Q-0.5,-0.5 0,-3.6Z"/></g><g transform="translate(989,134)"><path class="s e" style="animation-delay:-13.58s" opacity="0.5" d="M0,-3.6Q0.5,-0.5 3.6,0Q0.5,0.5 0,3.6Q-0.5,0.5 -3.6,0Q-0.5,-0.5 0,-3.6Z"/></g><g transform="translate(989,155)"><path class="s e" style="animation-delay:-13.58s" opacity="0.5" d="M0,-3.6Q0.5,-0.5 3.6,0Q0.5,0.5 0,3.6Q-0.5,0.5 -3.6,0Q-0.5,-0.5 0,-3.6Z"/></g><g transform="translate(989,176)"><path class="s e" style="animation-delay:-13.58s" opacity="0.5" d="M0,-3.6Q0.5,-0.5 3.6,0Q0.5,0.5 0,3.6Q-0.5,0.5 -3.6,0Q-0.5,-0.5 0,-3.6Z"/></g><g transform="translate(1010,50)"><path class="s e" style="animation-delay:-13.89s" opacity="0.5" d="M0,-3.6Q0.5,-0.5 3.6,0Q0.5,0.5 0,3.6Q-0.5,0.5 -3.6,0Q-0.5,-0.5 0,-3.6Z"/></g><g transform="translate(1010,71)"><path class="s f" style="animation-delay:-13.89s,-1.90s" opacity="1.0" d="M0,-10.0Q1.4,-1.4 10.0,0Q1.4,1.4 0,10.0Q-1.4,1.4 -10.0,0Q-1.4,-1.4 0,-10.0Z"/></g><g transform="translate(1010,92)"><path class="s e" style="animation-delay:-13.89s" opacity="0.5" d="M0,-3.6Q0.5,-0.5 3.6,0Q0.5,0.5 0,3.6Q-0.5,0.5 -3.6,0Q-0.5,-0.5 0,-3.6Z"/></g><g transform="translate(1010,113)"><path class="s f" style="animation-delay:-13.89s,-6.10s" opacity="1.0" d="M0,-11.5Q1.6,-1.6 11.5,0Q1.6,1.6 0,11.5Q-1.6,1.6 -11.5,0Q-1.6,-1.6 0,-11.5Z"/></g><g transform="translate(1010,134)"><path class="s f" style="animation-delay:-13.89s,-8.20s" opacity="1.0" d="M0,-11.5Q1.6,-1.6 11.5,0Q1.6,1.6 0,11.5Q-1.6,1.6 -11.5,0Q-1.6,-1.6 0,-11.5Z"/></g><g transform="translate(1010,155)"><path class="s f" style="animation-delay:-13.89s,-10.30s" opacity="1.0" d="M0,-10.0Q1.4,-1.4 10.0,0Q1.4,1.4 0,10.0Q-1.4,1.4 -10.0,0Q-1.4,-1.4 0,-10.0Z"/></g><g transform="translate(1010,176)"><path class="s e" style="animation-delay:-13.89s" opacity="0.5" d="M0,-3.6Q0.5,-0.5 3.6,0Q0.5,0.5 0,3.6Q-0.5,0.5 -3.6,0Q-0.5,-0.5 0,-3.6Z"/></g><g transform="translate(1031,50)"><path class="s e" style="animation-delay:-14.19s" opacity="0.5" d="M0,-3.6Q0.5,-0.5 3.6,0Q0.5,0.5 0,3.6Q-0.5,0.5 -3.6,0Q-0.5,-0.5 0,-3.6Z"/></g><g transform="translate(1031,71)"><path class="s e" style="animation-delay:-14.19s" opacity="0.5" d="M0,-3.6Q0.5,-0.5 3.6,0Q0.5,0.5 0,3.6Q-0.5,0.5 -3.6,0Q-0.5,-0.5 0,-3.6Z"/></g><g transform="translate(1031,92)"><path class="s f" style="animation-delay:-14.19s,-5.30s" opacity="1.0" d="M0,-10.0Q1.4,-1.4 10.0,0Q1.4,1.4 0,10.0Q-1.4,1.4 -10.0,0Q-1.4,-1.4 0,-10.0Z"/></g><g transform="translate(1031,113)"><path class="s f" style="animation-delay:-14.19s,-7.40s" opacity="0.92" d="M0,-8.5Q1.2,-1.2 8.5,0Q1.2,1.2 0,8.5Q-1.2,1.2 -8.5,0Q-1.2,-1.2 0,-8.5Z"/></g><g transform="translate(1031,134)"><path class="s e" style="animation-delay:-14.19s" opacity="0.5" d="M0,-3.6Q0.5,-0.5 3.6,0Q0.5,0.5 0,3.6Q-0.5,0.5 -3.6,0Q-0.5,-0.5 0,-3.6Z"/></g><g transform="translate(1031,155)"><path class="s f" style="animation-delay:-14.19s,-11.60s" opacity="1.0" d="M0,-10.0Q1.4,-1.4 10.0,0Q1.4,1.4 0,10.0Q-1.4,1.4 -10.0,0Q-1.4,-1.4 0,-10.0Z"/></g><g transform="translate(1031,176)"><path class="s e" style="animation-delay:-14.19s" opacity="0.5" d="M0,-3.6Q0.5,-0.5 3.6,0Q0.5,0.5 0,3.6Q-0.5,0.5 -3.6,0Q-0.5,-0.5 0,-3.6Z"/></g><g transform="translate(1052,50)"><path class="s e" style="animation-delay:-14.49s" opacity="0.5" d="M0,-3.6Q0.5,-0.5 3.6,0Q0.5,0.5 0,3.6Q-0.5,0.5 -3.6,0Q-0.5,-0.5 0,-3.6Z"/></g><g transform="translate(1052,71)"><path class="s e" style="animation-delay:-14.49s" opacity="0.5" d="M0,-3.6Q0.5,-0.5 3.6,0Q0.5,0.5 0,3.6Q-0.5,0.5 -3.6,0Q-0.5,-0.5 0,-3.6Z"/></g><g transform="translate(1052,92)"><path class="s e" style="animation-delay:-14.49s" opacity="0.5" d="M0,-3.6Q0.5,-0.5 3.6,0Q0.5,0.5 0,3.6Q-0.5,0.5 -3.6,0Q-0.5,-0.5 0,-3.6Z"/></g><g transform="translate(1052,113)"><path class="s e" style="animation-delay:-14.49s" opacity="0.5" d="M0,-3.6Q0.5,-0.5 3.6,0Q0.5,0.5 0,3.6Q-0.5,0.5 -3.6,0Q-0.5,-0.5 0,-3.6Z"/></g><g transform="translate(1052,134)"><path class="s e" style="animation-delay:-14.49s" opacity="0.5" d="M0,-3.6Q0.5,-0.5 3.6,0Q0.5,0.5 0,3.6Q-0.5,0.5 -3.6,0Q-0.5,-0.5 0,-3.6Z"/></g><g transform="translate(1052,155)"><path class="s e" style="animation-delay:-14.49s" opacity="0.5" d="M0,-3.6Q0.5,-0.5 3.6,0Q0.5,0.5 0,3.6Q-0.5,0.5 -3.6,0Q-0.5,-0.5 0,-3.6Z"/></g><g transform="translate(1052,176)"><path class="s e" style="animation-delay:-14.49s" opacity="0.5" d="M0,-3.6Q0.5,-0.5 3.6,0Q0.5,0.5 0,3.6Q-0.5,0.5 -3.6,0Q-0.5,-0.5 0,-3.6Z"/></g><g transform="translate(1073,50)"><path class="s e" style="animation-delay:-14.79s" opacity="0.5" d="M0,-3.6Q0.5,-0.5 3.6,0Q0.5,0.5 0,3.6Q-0.5,0.5 -3.6,0Q-0.5,-0.5 0,-3.6Z"/></g><g transform="translate(1073,71)"><path class="s f" style="animation-delay:-14.79s,-5.80s" opacity="1.0" d="M0,-11.5Q1.6,-1.6 11.5,0Q1.6,1.6 0,11.5Q-1.6,1.6 -11.5,0Q-1.6,-1.6 0,-11.5Z"/></g><g transform="translate(1073,92)"><path class="s f" style="animation-delay:-14.79s,-7.90s" opacity="1.0" d="M0,-10.0Q1.4,-1.4 10.0,0Q1.4,1.4 0,10.0Q-1.4,1.4 -10.0,0Q-1.4,-1.4 0,-10.0Z"/></g><g transform="translate(1073,113)"><path class="s f" style="animation-delay:-14.79s,-10.00s" opacity="0.92" d="M0,-8.5Q1.2,-1.2 8.5,0Q1.2,1.2 0,8.5Q-1.2,1.2 -8.5,0Q-1.2,-1.2 0,-8.5Z"/></g><g transform="translate(1073,134)"><path class="s f" style="animation-delay:-14.79s,-0.10s" opacity="1.0" d="M0,-10.0Q1.4,-1.4 10.0,0Q1.4,1.4 0,10.0Q-1.4,1.4 -10.0,0Q-1.4,-1.4 0,-10.0Z"/></g><g transform="translate(1073,155)"><path class="s f" style="animation-delay:-14.79s,-2.20s" opacity="1.0" d="M0,-10.0Q1.4,-1.4 10.0,0Q1.4,1.4 0,10.0Q-1.4,1.4 -10.0,0Q-1.4,-1.4 0,-10.0Z"/></g><g transform="translate(1073,176)"><path class="s f" style="animation-delay:-14.79s,-4.30s" opacity="0.85" d="M0,-7.0Q1.0,-1.0 7.0,0Q1.0,1.0 0,7.0Q-1.0,1.0 -7.0,0Q-1.0,-1.0 0,-7.0Z"/></g><g transform="translate(1094,50)"><path class="s f" style="animation-delay:-15.09s,-5.00s" opacity="0.85" d="M0,-7.0Q1.0,-1.0 7.0,0Q1.0,1.0 0,7.0Q-1.0,1.0 -7.0,0Q-1.0,-1.0 0,-7.0Z"/></g><g transform="translate(1094,71)"><path class="s f" style="animation-delay:-15.09s,-7.10s" opacity="0.92" d="M0,-8.5Q1.2,-1.2 8.5,0Q1.2,1.2 0,8.5Q-1.2,1.2 -8.5,0Q-1.2,-1.2 0,-8.5Z"/></g><g transform="translate(1094,92)"><path class="s f" style="animation-delay:-15.09s,-9.20s" opacity="0.92" d="M0,-8.5Q1.2,-1.2 8.5,0Q1.2,1.2 0,8.5Q-1.2,1.2 -8.5,0Q-1.2,-1.2 0,-8.5Z"/></g><g transform="translate(1094,113)"><path class="s f" style="animation-delay:-15.09s,-11.30s" opacity="1.0" d="M0,-10.0Q1.4,-1.4 10.0,0Q1.4,1.4 0,10.0Q-1.4,1.4 -10.0,0Q-1.4,-1.4 0,-10.0Z"/></g><g transform="translate(1094,134)"><path class="s f" style="animation-delay:-15.09s,-1.40s" opacity="0.92" d="M0,-8.5Q1.2,-1.2 8.5,0Q1.2,1.2 0,8.5Q-1.2,1.2 -8.5,0Q-1.2,-1.2 0,-8.5Z"/></g><g transform="translate(1094,155)"><path class="s f" style="animation-delay:-15.09s,-3.50s" opacity="1.0" d="M0,-10.0Q1.4,-1.4 10.0,0Q1.4,1.4 0,10.0Q-1.4,1.4 -10.0,0Q-1.4,-1.4 0,-10.0Z"/></g><g transform="translate(1094,176)"><path class="s e" style="animation-delay:-15.09s" opacity="0.5" d="M0,-3.6Q0.5,-0.5 3.6,0Q0.5,0.5 0,3.6Q-0.5,0.5 -3.6,0Q-0.5,-0.5 0,-3.6Z"/></g><g transform="translate(1115,50)"><path class="s e" style="animation-delay:-15.40s" opacity="0.5" d="M0,-3.6Q0.5,-0.5 3.6,0Q0.5,0.5 0,3.6Q-0.5,0.5 -3.6,0Q-0.5,-0.5 0,-3.6Z"/></g><g transform="translate(1115,71)"><path class="s f" style="animation-delay:-15.40s,-8.40s" opacity="0.92" d="M0,-8.5Q1.2,-1.2 8.5,0Q1.2,1.2 0,8.5Q-1.2,1.2 -8.5,0Q-1.2,-1.2 0,-8.5Z"/></g><g transform="translate(1115,92)"><path class="s f" style="animation-delay:-15.40s,-10.50s" opacity="1.0" d="M0,-10.0Q1.4,-1.4 10.0,0Q1.4,1.4 0,10.0Q-1.4,1.4 -10.0,0Q-1.4,-1.4 0,-10.0Z"/></g><g transform="translate(1115,113)"><path class="s f" style="animation-delay:-15.40s,-0.60s" opacity="1.0" d="M0,-11.5Q1.6,-1.6 11.5,0Q1.6,1.6 0,11.5Q-1.6,1.6 -11.5,0Q-1.6,-1.6 0,-11.5Z"/></g><g transform="translate(1115,134)"><path class="s f" style="animation-delay:-15.40s,-2.70s" opacity="1.0" d="M0,-11.5Q1.6,-1.6 11.5,0Q1.6,1.6 0,11.5Q-1.6,1.6 -11.5,0Q-1.6,-1.6 0,-11.5Z"/></g><g transform="translate(1115,155)"><path class="s f" style="animation-delay:-15.40s,-4.80s" opacity="1.0" d="M0,-11.5Q1.6,-1.6 11.5,0Q1.6,1.6 0,11.5Q-1.6,1.6 -11.5,0Q-1.6,-1.6 0,-11.5Z"/></g><g transform="translate(1115,176)"><path class="s f" style="animation-delay:-15.40s,-6.90s" opacity="1.0" d="M0,-10.0Q1.4,-1.4 10.0,0Q1.4,1.4 0,10.0Q-1.4,1.4 -10.0,0Q-1.4,-1.4 0,-10.0Z"/></g><g transform="translate(1136,50)"><path class="s f" style="animation-delay:-15.70s,-7.60s" opacity="1.0" d="M0,-10.0Q1.4,-1.4 10.0,0Q1.4,1.4 0,10.0Q-1.4,1.4 -10.0,0Q-1.4,-1.4 0,-10.0Z"/></g><g transform="translate(1136,71)"><path class="s f" style="animation-delay:-15.70s,-9.70s" opacity="0.92" d="M0,-8.5Q1.2,-1.2 8.5,0Q1.2,1.2 0,8.5Q-1.2,1.2 -8.5,0Q-1.2,-1.2 0,-8.5Z"/></g><g transform="translate(1136,92)"><path class="s f" style="animation-delay:-15.70s,-11.80s" opacity="1.0" d="M0,-10.0Q1.4,-1.4 10.0,0Q1.4,1.4 0,10.0Q-1.4,1.4 -10.0,0Q-1.4,-1.4 0,-10.0Z"/></g><g transform="translate(1136,113)"><path class="s f" style="animation-delay:-15.70s,-1.90s" opacity="1.0" d="M0,-10.0Q1.4,-1.4 10.0,0Q1.4,1.4 0,10.0Q-1.4,1.4 -10.0,0Q-1.4,-1.4 0,-10.0Z"/></g><g transform="translate(1136,134)"><path class="s f" style="animation-delay:-15.70s,-4.00s" opacity="0.85" d="M0,-7.0Q1.0,-1.0 7.0,0Q1.0,1.0 0,7.0Q-1.0,1.0 -7.0,0Q-1.0,-1.0 0,-7.0Z"/></g><g transform="translate(1136,155)"><path class="s f" style="animation-delay:-15.70s,-6.10s" opacity="1.0" d="M0,-10.0Q1.4,-1.4 10.0,0Q1.4,1.4 0,10.0Q-1.4,1.4 -10.0,0Q-1.4,-1.4 0,-10.0Z"/></g><g transform="translate(1136,176)"><path class="s f" style="animation-delay:-15.70s,-8.20s" opacity="0.85" d="M0,-7.0Q1.0,-1.0 7.0,0Q1.0,1.0 0,7.0Q-1.0,1.0 -7.0,0Q-1.0,-1.0 0,-7.0Z"/></g></svg>
