<svg xmlns="http://www.w3.org/2000/svg" width="1200" height="200" viewBox="0 0 1200 200" role="img" aria-label="My contribution graph with a Gemini-style gradient flowing across it"><defs><linearGradient id="flow" x1="0" y1="0" x2="1" y2="0.18"><stop offset="0.0000" stop-color="#4285F4"/><stop offset="0.1250" stop-color="#7C6CF0"/><stop offset="0.2500" stop-color="#C56BB0"/><stop offset="0.3750" stop-color="#E8769A"/><stop offset="0.5000" stop-color="#4285F4"/><stop offset="0.6250" stop-color="#7C6CF0"/><stop offset="0.7500" stop-color="#C56BB0"/><stop offset="0.8750" stop-color="#E8769A"/><stop offset="1.0000" stop-color="#4285F4"/></linearGradient><mask id="grid"><rect x="98" y="36" width="15" height="15" rx="3.5" fill="#fff" fill-opacity="0.16"/><rect x="98" y="55" width="15" height="15" rx="3.5" fill="#fff" fill-opacity="0.16"/><rect x="98" y="74" width="15" height="15" rx="3.5" fill="#fff" fill-opacity="0.16"/><rect x="98" y="93" width="15" height="15" rx="3.5" fill="#fff" fill-opacity="0.16"/><rect x="98" y="112" width="15" height="15" rx="3.5" fill="#fff" fill-opacity="0.16"/><rect x="98" y="131" width="15" height="15" rx="3.5" fill="#fff" fill-opacity="0.16"/><rect x="98" y="150" width="15" height="15" rx="3.5" fill="#fff" fill-opacity="0.16"/><rect x="117" y="36" width="15" height="15" rx="3.5" fill="#fff" fill-opacity="0.16"/><rect x="117" y="55" width="15" height="15" rx="3.5" fill="#fff" fill-opacity="0.16"/><rect x="117" y="74" width="15" height="15" rx="3.5" fill="#fff" fill-opacity="0.16"/><rect x="117" y="93" width="15" height="15" rx="3.5" fill="#fff" fill-opacity="0.16"/><rect x="117" y="112" width="15" height="15" rx="3.5" fill="#fff" fill-opacity="0.16"/><rect x="117" y="131" width="15" height="15" rx="3.5" fill="#fff" fill-opacity="0.16"/><rect x="117" y="150" width="15" height="15" rx="3.5" fill="#fff" fill-opacity="0.16"/><rect x="136" y="36" width="15" height="15" rx="3.5" fill="#fff" fill-opacity="0.16"/><rect x="136" y="55" width="15" height="15" rx="3.5" fill="#fff" fill-opacity="0.16"/><rect x="136" y="74" width="15" height="15" rx="3.5" fill="#fff" fill-opacity="0.16"/><rect x="136" y="93" width="15" height="15" rx="3.5" fill="#fff" fill-opacity="0.16"/><rect x="136" y="112" width="15" height="15" rx="3.5" fill="#fff" fill-opacity="0.16"/><rect x="136" y="131" width="15" height="15" rx="3.5" fill="#fff" fill-opacity="0.16"/><rect x="136" y="150" width="15" height="15" rx="3.5" fill="#fff" fill-opacity="0.16"/><rect x="155" y="36" width="15" height="15" rx="3.5" fill="#fff" fill-opacity="0.16"/><rect x="155" y="55" width="15" height="15" rx="3.5" fill="#fff" fill-opacity="0.16"/><rect x="155" y="74" width="15" height="15" rx="3.5" fill="#fff" fill-opacity="0.16"/><rect x="155" y="93" width="15" height="15" rx="3.5" fill="#fff" fill-opacity="0.16"/><rect x="155" y="112" width="15" height="15" rx="3.5" fill="#fff" fill-opacity="0.16"/><rect x="155" y="131" width="15" height="15" rx="3.5" fill="#fff" fill-opacity="0.16"/><rect x="155" y="150" width="15" height="15" rx="3.5" fill="#fff" fill-opacity="0.16"/><rect x="174" y="36" width="15" height="15" rx="3.5" fill="#fff" fill-opacity="0.16"/><rect x="174" y="55" width="15" height="15" rx="3.5" fill="#fff" fill-opacity="0.16"/><rect x="174" y="74" width="15" height="15" rx="3.5" fill="#fff" fill-opacity="0.16"/><rect x="174" y="93" width="15" height="15" rx="3.5" fill="#fff" fill-opacity="0.16"/><rect x="174" y="112" width="15" height="15" rx="3.5" fill="#fff" fill-opacity="0.16"/><rect x="174" y="131" width="15" height="15" rx="3.5" fill="#fff" fill-opacity="0.16"/><rect x="174" y="150" width="15" height="15" rx="3.5" fill="#fff" fill-opacity="0.16"/><rect x="193" y="36" width="15" height="15" rx="3.5" fill="#fff" fill-opacity="0.16"/><rect x="193" y="55" width="15" height="15" rx="3.5" fill="#fff" fill-opacity="0.16"/><rect x="193" y="74" width="15" height="15" rx="3.5" fill="#fff" fill-opacity="0.16"/><rect x="193" y="93" width="15" height="15" rx="3.5" fill="#fff" fill-opacity="0.16"/><rect x="193" y="112" width="15" height="15" rx="3.5" fill="#fff" fill-opacity="0.16"/><rect x="193" y="131" width="15" height="15" rx="3.5" fill="#fff" fill-opacity="0.16"/><rect x="193" y="150" width="15" height="15" rx="3.5" fill="#fff" fill-opacity="0.16"/><rect x="212" y="36" width="15" height="15" rx="3.5" fill="#fff" fill-opacity="0.16"/><rect x="212" y="55" width="15" height="15" rx="3.5" fill="#fff" fill-opacity="0.16"/><rect x="212" y="74" width="15" height="15" rx="3.5" fill="#fff" fill-opacity="0.16"/><rect x="212" y="93" width="15" height="15" rx="3.5" fill="#fff" fill-opacity="0.16"/><rect x="212" y="112" width="15" height="15" rx="3.5" fill="#fff" fill-opacity="0.16"/><rect x="212" y="131" width="15" height="15" rx="3.5" fill="#fff" fill-opacity="0.16"/><rect x="212" y="150" width="15" height="15" rx="3.5" fill="#fff" fill-opacity="0.16"/><rect x="231" y="36" width="15" height="15" rx="3.5" fill="#fff" fill-opacity="0.16"/><rect x="231" y="55" width="15" height="15" rx="3.5" fill="#fff" fill-opacity="0.16"/><rect x="231" y="74" width="15" height="15" rx="3.5" fill="#fff" fill-opacity="0.16"/><rect x="231" y="93" width="15" height="15" rx="3.5" fill="#fff" fill-opacity="0.16"/><rect x="231" y="112" width="15" height="15" rx="3.5" fill="#fff" fill-opacity="0.16"/><rect x="231" y="131" width="15" height="15" rx="3.5" fill="#fff" fill-opacity="0.16"/><rect x="231" y="150" width="15" height="15" rx="3.5" fill="#fff" fill-opacity="0.16"/><rect x="250" y="36" width="15" height="15" rx="3.5" fill="#fff" fill-opacity="0.55"/><rect x="250" y="55" width="15" height="15" rx="3.5" fill="#fff" fill-opacity="0.16"/><rect x="250" y="74" width="15" height="15" rx="3.5" fill="#fff" fill-opacity="0.16"/><rect x="250" y="93" width="15" height="15" rx="3.5" fill="#fff" fill-opacity="0.16"/><rect x="250" y="112" width="15" height="15" rx="3.5" fill="#fff" fill-opacity="0.16"/><rect x="250" y="131" width="15" height="15" rx="3.5" fill="#fff" fill-opacity="0.16"/><rect x="250" y="150" width="15" height="15" rx="3.5" fill="#fff" fill-opacity="0.16"/><rect x="269" y="36" width="15" height="15" rx="3.5" fill="#fff" fill-opacity="0.16"/><rect x="269" y="55" width="15" height="15" rx="3.5" fill="#fff" fill-opacity="0.16"/><rect x="269" y="74" width="15" height="15" rx="3.5" fill="#fff" fill-opacity="0.16"/><rect x="269" y="93" width="15" height="15" rx="3.5" fill="#fff" fill-opacity="0.16"/><rect x="269" y="112" width="15" height="15" rx="3.5" fill="#fff" fill-opacity="0.16"/><rect x="269" y="131" width="15" height="15" rx="3.5" fill="#fff" fill-opacity="0.16"/><rect x="269" y="150" width="15" height="15" rx="3.5" fill="#fff" fill-opacity="0.16"/><rect x="288" y="36" width="15" height="15" rx="3.5" fill="#fff" fill-opacity="0.16"/><rect x="288" y="55" width="15" height="15" rx="3.5" fill="#fff" fill-opacity="0.16"/><rect x="288" y="74" width="15" height="15" rx="3.5" fill="#fff" fill-opacity="0.16"/><rect x="288" y="93" width="15" height="15" rx="3.5" fill="#fff" fill-opacity="0.16"/><rect x="288" y="112" width="15" height="15" rx="3.5" fill="#fff" fill-opacity="0.16"/><rect x="288" y="131" width="15" height="15" rx="3.5" fill="#fff" fill-opacity="0.16"/><rect x="288" y="150" width="15" height="15" rx="3.5" fill="#fff" fill-opacity="0.16"/><rect x="307" y="36" width="15" height="15" rx="3.5" fill="#fff" fill-opacity="0.16"/><rect x="307" y="55" width="15" height="15" rx="3.5" fill="#fff" fill-opacity="0.16"/><rect x="307" y="74" width="15" height="15" rx="3.5" fill="#fff" fill-opacity="0.16"/><rect x="307" y="93" width="15" height="15" rx="3.5" fill="#fff" fill-opacity="0.16"/><rect x="307" y="112" width="15" height="15" rx="3.5" fill="#fff" fill-opacity="0.16"/><rect x="307" y="131" width="15" height="15" rx="3.5" fill="#fff" fill-opacity="0.16"/><rect x="307" y="150" width="15" height="15" rx="3.5" fill="#fff" fill-opacity="0.16"/><rect x="326" y="36" width="15" height="15" rx="3.5" fill="#fff" fill-opacity="0.16"/><rect x="326" y="55" width="15" height="15" rx="3.5" fill="#fff" fill-opacity="0.16"/><rect x="326" y="74" width="15" height="15" rx="3.5" fill="#fff" fill-opacity="0.16"/><rect x="326" y="93" width="15" height="15" rx="3.5" fill="#fff" fill-opacity="0.16"/><rect x="326" y="112" width="15" height="15" rx="3.5" fill="#fff" fill-opacity="0.16"/><rect x="326" y="131" width="15" height="15" rx="3.5" fill="#fff" fill-opacity="0.16"/><rect x="326" y="150" width="15" height="15" rx="3.5" fill="#fff" fill-opacity="0.16"/><rect x="345" y="36" width="15" height="15" rx="3.5" fill="#fff" fill-opacity="0.16"/><rect x="345" y="55" width="15" height="15" rx="3.5" fill="#fff" fill-opacity="0.16"/><rect x="345" y="74" width="15" height="15" rx="3.5" fill="#fff" fill-opacity="0.16"/><rect x="345" y="93" width="15" height="15" rx="3.5" fill="#fff" fill-opacity="0.16"/><rect x="345" y="112" width="15" height="15" rx="3.5" fill="#fff" fill-opacity="0.16"/><rect x="345" y="131" width="15" height="15" rx="3.5" fill="#fff" fill-opacity="0.16"/><rect x="345" y="150" width="15" height="15" rx="3.5" fill="#fff" fill-opacity="0.16"/><rect x="364" y="36" width="15" height="15" rx="3.5" fill="#fff" fill-opacity="0.16"/><rect x="364" y="55" width="15" height="15" rx="3.5" fill="#fff" fill-opacity="0.16"/><rect x="364" y="74" width="15" height="15" rx="3.5" fill="#fff" fill-opacity="0.16"/><rect x="364" y="93" width="15" height="15" rx="3.5" fill="#fff" fill-opacity="0.16"/><rect x="364" y="112" width="15" height="15" rx="3.5" fill="#fff" fill-opacity="0.16"/><rect x="364" y="131" width="15" height="15" rx="3.5" fill="#fff" fill-opacity="0.16"/><rect x="364" y="150" width="15" height="15" rx="3.5" fill="#fff" fill-opacity="0.16"/><rect x="383" y="36" width="15" height="15" rx="3.5" fill="#fff" fill-opacity="0.16"/><rect x="383" y="55" width="15" height="15" rx="3.5" fill="#fff" fill-opacity="0.16"/><rect x="383" y="74" width="15" height="15" rx="3.5" fill="#fff" fill-opacity="0.16"/><rect x="383" y="93" width="15" height="15" rx="3.5" fill="#fff" fill-opacity="0.16"/><rect x="383" y="112" width="15" height="15" rx="3.5" fill="#fff" fill-opacity="0.16"/><rect x="383" y="131" width="15" height="15" rx="3.5" fill="#fff" fill-opacity="0.16"/><rect x="383" y="150" width="15" height="15" rx="3.5" fill="#fff" fill-opacity="0.16"/><rect x="402" y="36" width="15" height="15" rx="3.5" fill="#fff" fill-opacity="0.16"/><rect x="402" y="55" width="15" height="15" rx="3.5" fill="#fff" fill-opacity="0.16"/><rect x="402" y="74" width="15" height="15" rx="3.5" fill="#fff" fill-opacity="0.16"/><rect x="402" y="93" width="15" height="15" rx="3.5" fill="#fff" fill-opacity="0.16"/><rect x="402" y="112" width="15" height="15" rx="3.5" fill="#fff" fill-opacity="0.16"/><rect x="402" y="131" width="15" height="15" rx="3.5" fill="#fff" fill-opacity="0.16"/><rect x="402" y="150" width="15" height="15" rx="3.5" fill="#fff" fill-opacity="0.16"/><rect x="421" y="36" width="15" height="15" rx="3.5" fill="#fff" fill-opacity="0.16"/><rect x="421" y="55" width="15" height="15" rx="3.5" fill="#fff" fill-opacity="0.16"/><rect x="421" y="74" width="15" height="15" rx="3.5" fill="#fff" fill-opacity="0.16"/><rect x="421" y="93" width="15" height="15" rx="3.5" fill="#fff" fill-opacity="0.16"/><rect x="421" y="112" width="15" height="15" rx="3.5" fill="#fff" fill-opacity="0.16"/><rect x="421" y="131" width="15" height="15" rx="3.5" fill="#fff" fill-opacity="0.16"/><rect x="421" y="150" width="15" height="15" rx="3.5" fill="#fff" fill-opacity="0.16"/><rect x="440" y="36" width="15" height="15" rx="3.5" fill="#fff" fill-opacity="0.16"/><rect x="440" y="55" width="15" height="15" rx="3.5" fill="#fff" fill-opacity="0.16"/><rect x="440" y="74" width="15" height="15" rx="3.5" fill="#fff" fill-opacity="0.16"/><rect x="440" y="93" width="15" height="15" rx="3.5" fill="#fff" fill-opacity="0.16"/><rect x="440" y="112" width="15" height="15" rx="3.5" fill="#fff" fill-opacity="0.16"/><rect x="440" y="131" width="15" height="15" rx="3.5" fill="#fff" fill-opacity="0.16"/><rect x="440" y="150" width="15" height="15" rx="3.5" fill="#fff" fill-opacity="0.16"/><rect x="459" y="36" width="15" height="15" rx="3.5" fill="#fff" fill-opacity="0.16"/><rect x="459" y="55" width="15" height="15" rx="3.5" fill="#fff" fill-opacity="0.16"/><rect x="459" y="74" width="15" height="15" rx="3.5" fill="#fff" fill-opacity="0.16"/><rect x="459" y="93" width="15" height="15" rx="3.5" fill="#fff" fill-opacity="0.16"/><rect x="459" y="112" width="15" height="15" rx="3.5" fill="#fff" fill-opacity="0.16"/><rect x="459" y="131" width="15" height="15" rx="3.5" fill="#fff" fill-opacity="0.16"/><rect x="459" y="150" width="15" height="15" rx="3.5" fill="#fff" fill-opacity="0.16"/><rect x="478" y="36" width="15" height="15" rx="3.5" fill="#fff" fill-opacity="0.16"/><rect x="478" y="55" width="15" height="15" rx="3.5" fill="#fff" fill-opacity="0.16"/><rect x="478" y="74" width="15" height="15" rx="3.5" fill="#fff" fill-opacity="0.16"/><rect x="478" y="93" width="15" height="15" rx="3.5" fill="#fff" fill-opacity="0.16"/><rect x="478" y="112" width="15" height="15" rx="3.5" fill="#fff" fill-opacity="0.16"/><rect x="478" y="131" width="15" height="15" rx="3.5" fill="#fff" fill-opacity="0.16"/><rect x="478" y="150" width="15" height="15" rx="3.5" fill="#fff" fill-opacity="0.16"/><rect x="497" y="36" width="15" height="15" rx="3.5" fill="#fff" fill-opacity="0.16"/><rect x="497" y="55" width="15" height="15" rx="3.5" fill="#fff" fill-opacity="0.16"/><rect x="497" y="74" width="15" height="15" rx="3.5" fill="#fff" fill-opacity="0.16"/><rect x="497" y="93" width="15" height="15" rx="3.5" fill="#fff" fill-opacity="0.16"/><rect x="497" y="112" width="15" height="15" rx="3.5" fill="#fff" fill-opacity="0.16"/><rect x="497" y="131" width="15" height="15" rx="3.5" fill="#fff" fill-opacity="0.16"/><rect x="497" y="150" width="15" height="15" rx="3.5" fill="#fff" fill-opacity="0.16"/><rect x="516" y="36" width="15" height="15" rx="3.5" fill="#fff" fill-opacity="0.16"/><rect x="516" y="55" width="15" height="15" rx="3.5" fill="#fff" fill-opacity="0.16"/><rect x="516" y="74" width="15" height="15" rx="3.5" fill="#fff" fill-opacity="0.16"/><rect x="516" y="93" width="15" height="15" rx="3.5" fill="#fff" fill-opacity="0.16"/><rect x="516" y="112" width="15" height="15" rx="3.5" fill="#fff" fill-opacity="0.16"/><rect x="516" y="131" width="15" height="15" rx="3.5" fill="#fff" fill-opacity="0.16"/><rect x="516" y="150" width="15" height="15" rx="3.5" fill="#fff" fill-opacity="0.16"/><rect x="535" y="36" width="15" height="15" rx="3.5" fill="#fff" fill-opacity="0.16"/><rect x="535" y="55" width="15" height="15" rx="3.5" fill="#fff" fill-opacity="0.16"/><rect x="535" y="74" width="15" height="15" rx="3.5" fill="#fff" fill-opacity="0.16"/><rect x="535" y="93" width="15" height="15" rx="3.5" fill="#fff" fill-opacity="0.16"/><rect x="535" y="112" width="15" height="15" rx="3.5" fill="#fff" fill-opacity="0.16"/><rect x="535" y="131" width="15" height="15" rx="3.5" fill="#fff" fill-opacity="0.16"/><rect x="535" y="150" width="15" height="15" rx="3.5" fill="#fff" fill-opacity="0.16"/><rect x="554" y="36" width="15" height="15" rx="3.5" fill="#fff" fill-opacity="0.16"/><rect x="554" y="55" width="15" height="15" rx="3.5" fill="#fff" fill-opacity="0.16"/><rect x="554" y="74" width="15" height="15" rx="3.5" fill="#fff" fill-opacity="0.16"/><rect x="554" y="93" width="15" height="15" rx="3.5" fill="#fff" fill-opacity="0.16"/><rect x="554" y="112" width="15" height="15" rx="3.5" fill="#fff" fill-opacity="0.16"/><rect x="554" y="131" width="15" height="15" rx="3.5" fill="#fff" fill-opacity="0.16"/><rect x="554" y="150" width="15" height="15" rx="3.5" fill="#fff" fill-opacity="0.16"/><rect x="573" y="36" width="15" height="15" rx="3.5" fill="#fff" fill-opacity="0.16"/><rect x="573" y="55" width="15" height="15" rx="3.5" fill="#fff" fill-opacity="0.16"/><rect x="573" y="74" width="15" height="15" rx="3.5" fill="#fff" fill-opacity="0.16"/><rect x="573" y="93" width="15" height="15" rx="3.5" fill="#fff" fill-opacity="0.16"/><rect x="573" y="112" width="15" height="15" rx="3.5" fill="#fff" fill-opacity="0.16"/><rect x="573" y="131" width="15" height="15" rx="3.5" fill="#fff" fill-opacity="0.16"/><rect x="573" y="150" width="15" height="15" rx="3.5" fill="#fff" fill-opacity="0.16"/><rect x="592" y="36" width="15" height="15" rx="3.5" fill="#fff" fill-opacity="0.16"/><rect x="592" y="55" width="15" height="15" rx="3.5" fill="#fff" fill-opacity="0.16"/><rect x="592" y="74" width="15" height="15" rx="3.5" fill="#fff" fill-opacity="0.16"/><rect x="592" y="93" width="15" height="15" rx="3.5" fill="#fff" fill-opacity="0.16"/><rect x="592" y="112" width="15" height="15" rx="3.5" fill="#fff" fill-opacity="0.16"/><rect x="592" y="131" width="15" height="15" rx="3.5" fill="#fff" fill-opacity="0.16"/><rect x="592" y="150" width="15" height="15" rx="3.5" fill="#fff" fill-opacity="0.16"/><rect x="611" y="36" width="15" height="15" rx="3.5" fill="#fff" fill-opacity="0.16"/><rect x="611" y="55" width="15" height="15" rx="3.5" fill="#fff" fill-opacity="0.16"/><rect x="611" y="74" width="15" height="15" rx="3.5" fill="#fff" fill-opacity="0.16"/><rect x="611" y="93" width="15" height="15" rx="3.5" fill="#fff" fill-opacity="0.16"/><rect x="611" y="112" width="15" height="15" rx="3.5" fill="#fff" fill-opacity="0.16"/><rect x="611" y="131" width="15" height="15" rx="3.5" fill="#fff" fill-opacity="0.16"/><rect x="611" y="150" width="15" height="15" rx="3.5" fill="#fff" fill-opacity="0.16"/><rect x="630" y="36" width="15" height="15" rx="3.5" fill="#fff" fill-opacity="0.16"/><rect x="630" y="55" width="15" height="15" rx="3.5" fill="#fff" fill-opacity="0.16"/><rect x="630" y="74" width="15" height="15" rx="3.5" fill="#fff" fill-opacity="0.16"/><rect x="630" y="93" width="15" height="15" rx="3.5" fill="#fff" fill-opacity="0.16"/><rect x="630" y="112" width="15" height="15" rx="3.5" fill="#fff" fill-opacity="0.16"/><rect x="630" y="131" width="15" height="15" rx="3.5" fill="#fff" fill-opacity="0.16"/><rect x="630" y="150" width="15" height="15" rx="3.5" fill="#fff" fill-opacity="0.16"/><rect x="649" y="36" width="15" height="15" rx="3.5" fill="#fff" fill-opacity="0.16"/><rect x="649" y="55" width="15" height="15" rx="3.5" fill="#fff" fill-opacity="0.16"/><rect x="649" y="74" width="15" height="15" rx="3.5" fill="#fff" fill-opacity="0.16"/><rect x="649" y="93" width="15" height="15" rx="3.5" fill="#fff" fill-opacity="0.16"/><rect x="649" y="112" width="15" height="15" rx="3.5" fill="#fff" fill-opacity="0.16"/><rect x="649" y="131" width="15" height="15" rx="3.5" fill="#fff" fill-opacity="0.16"/><rect x="649" y="150" width="15" height="15" rx="3.5" fill="#fff" fill-opacity="0.16"/><rect x="668" y="36" width="15" height="15" rx="3.5" fill="#fff" fill-opacity="0.16"/><rect x="668" y="55" width="15" height="15" rx="3.5" fill="#fff" fill-opacity="0.16"/><rect x="668" y="74" width="15" height="15" rx="3.5" fill="#fff" fill-opacity="0.16"/><rect x="668" y="93" width="15" height="15" rx="3.5" fill="#fff" fill-opacity="0.72"/><rect x="668" y="112" width="15" height="15" rx="3.5" fill="#fff" fill-opacity="0.16"/><rect x="668" y="131" width="15" height="15" rx="3.5" fill="#fff" fill-opacity="0.16"/><rect x="668" y="150" width="15" height="15" rx="3.5" fill="#fff" fill-opacity="0.16"/><rect x="687" y="36" width="15" height="15" rx="3.5" fill="#fff" fill-opacity="0.16"/><rect x="687" y="55" width="15" height="15" rx="3.5" fill="#fff" fill-opacity="0.72"/><rect x="687" y="74" width="15" height="15" rx="3.5" fill="#fff" fill-opacity="0.55"/><rect x="687" y="93" width="15" height="15" rx="3.5" fill="#fff" fill-opacity="0.72"/><rect x="687" y="112" width="15" height="15" rx="3.5" fill="#fff" fill-opacity="0.16"/><rect x="687" y="131" width="15" height="15" rx="3.5" fill="#fff" fill-opacity="0.16"/><rect x="687" y="150" width="15" height="15" rx="3.5" fill="#fff" fill-opacity="0.72"/><rect x="706" y="36" width="15" height="15" rx="3.5" fill="#fff" fill-opacity="0.16"/><rect x="706" y="55" width="15" height="15" rx="3.5" fill="#fff" fill-opacity="0.16"/><rect x="706" y="74" width="15" height="15" rx="3.5" fill="#fff" fill-opacity="0.16"/><rect x="706" y="93" width="15" height="15" rx="3.5" fill="#fff" fill-opacity="0.16"/><rect x="706" y="112" width="15" height="15" rx="3.5" fill="#fff" fill-opacity="0.16"/><rect x="706" y="131" width="15" height="15" rx="3.5" fill="#fff" fill-opacity="0.16"/><rect x="706" y="150" width="15" height="15" rx="3.5" fill="#fff" fill-opacity="0.16"/><rect x="725" y="36" width="15" height="15" rx="3.5" fill="#fff" fill-opacity="0.16"/><rect x="725" y="55" width="15" height="15" rx="3.5" fill="#fff" fill-opacity="0.55"/><rect x="725" y="74" width="15" height="15" rx="3.5" fill="#fff" fill-opacity="0.16"/><rect x="725" y="93" width="15" height="15" rx="3.5" fill="#fff" fill-opacity="0.55"/><rect x="725" y="112" width="15" height="15" rx="3.5" fill="#fff" fill-opacity="0.16"/><rect x="725" y="131" width="15" height="15" rx="3.5" fill="#fff" fill-opacity="0.16"/><rect x="725" y="150" width="15" height="15" rx="3.5" fill="#fff" fill-opacity="0.16"/><rect x="744" y="36" width="15" height="15" rx="3.5" fill="#fff" fill-opacity="0.16"/><rect x="744" y="55" width="15" height="15" rx="3.5" fill="#fff" fill-opacity="0.16"/><rect x="744" y="74" width="15" height="15" rx="3.5" fill="#fff" fill-opacity="0.72"/><rect x="744" y="93" width="15" height="15" rx="3.5" fill="#fff" fill-opacity="0.88"/><rect x="744" y="112" width="15" height="15" rx="3.5" fill="#fff" fill-opacity="0.88"/><rect x="744" y="131" width="15" height="15" rx="3.5" fill="#fff" fill-opacity="0.88"/><rect x="744" y="150" width="15" height="15" rx="3.5" fill="#fff" fill-opacity="0.72"/><rect x="763" y="36" width="15" height="15" rx="3.5" fill="#fff" fill-opacity="0.16"/><rect x="763" y="55" width="15" height="15" rx="3.5" fill="#fff" fill-opacity="0.16"/><rect x="763" y="74" width="15" height="15" rx="3.5" fill="#fff" fill-opacity="0.88"/><rect x="763" y="93" width="15" height="15" rx="3.5" fill="#fff" fill-opacity="0.88"/><rect x="763" y="112" width="15" height="15" rx="3.5" fill="#fff" fill-opacity="0.72"/><rect x="763" y="131" width="15" height="15" rx="3.5" fill="#fff" fill-opacity="0.88"/><rect x="763" y="150" width="15" height="15" rx="3.5" fill="#fff" fill-opacity="0.16"/><rect x="782" y="36" width="15" height="15" rx="3.5" fill="#fff" fill-opacity="0.88"/><rect x="782" y="55" width="15" height="15" rx="3.5" fill="#fff" fill-opacity="0.88"/><rect x="782" y="74" width="15" height="15" rx="3.5" fill="#fff" fill-opacity="0.72"/><rect x="782" y="93" width="15" height="15" rx="3.5" fill="#fff" fill-opacity="0.16"/><rect x="782" y="112" width="15" height="15" rx="3.5" fill="#fff" fill-opacity="0.55"/><rect x="782" y="131" width="15" height="15" rx="3.5" fill="#fff" fill-opacity="0.16"/><rect x="782" y="150" width="15" height="15" rx="3.5" fill="#fff" fill-opacity="0.72"/><rect x="801" y="36" width="15" height="15" rx="3.5" fill="#fff" fill-opacity="0.16"/><rect x="801" y="55" width="15" height="15" rx="3.5" fill="#fff" fill-opacity="0.55"/><rect x="801" y="74" width="15" height="15" rx="3.5" fill="#fff" fill-opacity="0.16"/><rect x="801" y="93" width="15" height="15" rx="3.5" fill="#fff" fill-opacity="0.72"/><rect x="801" y="112" width="15" height="15" rx="3.5" fill="#fff" fill-opacity="0.16"/><rect x="801" y="131" width="15" height="15" rx="3.5" fill="#fff" fill-opacity="0.16"/><rect x="801" y="150" width="15" height="15" rx="3.5" fill="#fff" fill-opacity="0.72"/><rect x="820" y="36" width="15" height="15" rx="3.5" fill="#fff" fill-opacity="0.72"/><rect x="820" y="55" width="15" height="15" rx="3.5" fill="#fff" fill-opacity="0.72"/><rect x="820" y="74" width="15" height="15" rx="3.5" fill="#fff" fill-opacity="0.16"/><rect x="820" y="93" width="15" height="15" rx="3.5" fill="#fff" fill-opacity="0.55"/><rect x="820" y="112" width="15" height="15" rx="3.5" fill="#fff" fill-opacity="0.72"/><rect x="820" y="131" width="15" height="15" rx="3.5" fill="#fff" fill-opacity="0.72"/><rect x="820" y="150" width="15" height="15" rx="3.5" fill="#fff" fill-opacity="0.72"/><rect x="839" y="36" width="15" height="15" rx="3.5" fill="#fff" fill-opacity="0.16"/><rect x="839" y="55" width="15" height="15" rx="3.5" fill="#fff" fill-opacity="0.88"/><rect x="839" y="74" width="15" height="15" rx="3.5" fill="#fff" fill-opacity="0.72"/><rect x="839" y="93" width="15" height="15" rx="3.5" fill="#fff" fill-opacity="0.88"/><rect x="839" y="112" width="15" height="15" rx="3.5" fill="#fff" fill-opacity="0.16"/><rect x="839" y="131" width="15" height="15" rx="3.5" fill="#fff" fill-opacity="0.72"/><rect x="839" y="150" width="15" height="15" rx="3.5" fill="#fff" fill-opacity="0.88"/><rect x="858" y="36" width="15" height="15" rx="3.5" fill="#fff" fill-opacity="0.88"/><rect x="858" y="55" width="15" height="15" rx="3.5" fill="#fff" fill-opacity="0.88"/><rect x="858" y="74" width="15" height="15" rx="3.5" fill="#fff" fill-opacity="0.16"/><rect x="858" y="93" width="15" height="15" rx="3.5" fill="#fff" fill-opacity="0.55"/><rect x="858" y="112" width="15" height="15" rx="3.5" fill="#fff" fill-opacity="0.16"/><rect x="858" y="131" width="15" height="15" rx="3.5" fill="#fff" fill-opacity="0.16"/><rect x="858" y="150" width="15" height="15" rx="3.5" fill="#fff" fill-opacity="0.16"/><rect x="877" y="36" width="15" height="15" rx="3.5" fill="#fff" fill-opacity="0.16"/><rect x="877" y="55" width="15" height="15" rx="3.5" fill="#fff" fill-opacity="1.0"/><rect x="877" y="74" width="15" height="15" rx="3.5" fill="#fff" fill-opacity="0.72"/><rect x="877" y="93" width="15" height="15" rx="3.5" fill="#fff" fill-opacity="0.16"/><rect x="877" y="112" width="15" height="15" rx="3.5" fill="#fff" fill-opacity="0.16"/><rect x="877" y="131" width="15" height="15" rx="3.5" fill="#fff" fill-opacity="0.72"/><rect x="877" y="150" width="15" height="15" rx="3.5" fill="#fff" fill-opacity="0.16"/><rect x="896" y="36" width="15" height="15" rx="3.5" fill="#fff" fill-opacity="0.16"/><rect x="896" y="55" width="15" height="15" rx="3.5" fill="#fff" fill-opacity="0.88"/><rect x="896" y="74" width="15" height="15" rx="3.5" fill="#fff" fill-opacity="0.88"/><rect x="896" y="93" width="15" height="15" rx="3.5" fill="#fff" fill-opacity="1.0"/><rect x="896" y="112" width="15" height="15" rx="3.5" fill="#fff" fill-opacity="0.88"/><rect x="896" y="131" width="15" height="15" rx="3.5" fill="#fff" fill-opacity="0.88"/><rect x="896" y="150" width="15" height="15" rx="3.5" fill="#fff" fill-opacity="0.16"/><rect x="915" y="36" width="15" height="15" rx="3.5" fill="#fff" fill-opacity="0.16"/><rect x="915" y="55" width="15" height="15" rx="3.5" fill="#fff" fill-opacity="0.55"/><rect x="915" y="74" width="15" height="15" rx="3.5" fill="#fff" fill-opacity="1.0"/><rect x="915" y="93" width="15" height="15" rx="3.5" fill="#fff" fill-opacity="0.88"/><rect x="915" y="112" width="15" height="15" rx="3.5" fill="#fff" fill-opacity="0.16"/><rect x="915" y="131" width="15" height="15" rx="3.5" fill="#fff" fill-opacity="0.72"/><rect x="915" y="150" width="15" height="15" rx="3.5" fill="#fff" fill-opacity="0.16"/><rect x="934" y="36" width="15" height="15" rx="3.5" fill="#fff" fill-opacity="0.16"/><rect x="934" y="55" width="15" height="15" rx="3.5" fill="#fff" fill-opacity="0.16"/><rect x="934" y="74" width="15" height="15" rx="3.5" fill="#fff" fill-opacity="0.55"/><rect x="934" y="93" width="15" height="15" rx="3.5" fill="#fff" fill-opacity="1.0"/><rect x="934" y="112" width="15" height="15" rx="3.5" fill="#fff" fill-opacity="1.0"/><rect x="934" y="131" width="15" height="15" rx="3.5" fill="#fff" fill-opacity="1.0"/><rect x="934" y="150" width="15" height="15" rx="3.5" fill="#fff" fill-opacity="0.16"/><rect x="953" y="36" width="15" height="15" rx="3.5" fill="#fff" fill-opacity="0.16"/><rect x="953" y="55" width="15" height="15" rx="3.5" fill="#fff" fill-opacity="0.16"/><rect x="953" y="74" width="15" height="15" rx="3.5" fill="#fff" fill-opacity="0.16"/><rect x="953" y="93" width="15" height="15" rx="3.5" fill="#fff" fill-opacity="0.16"/><rect x="953" y="112" width="15" height="15" rx="3.5" fill="#fff" fill-opacity="0.16"/><rect x="953" y="131" width="15" height="15" rx="3.5" fill="#fff" fill-opacity="0.16"/><rect x="953" y="150" width="15" height="15" rx="3.5" fill="#fff" fill-opacity="0.16"/><rect x="972" y="36" width="15" height="15" rx="3.5" fill="#fff" fill-opacity="0.16"/><rect x="972" y="55" width="15" height="15" rx="3.5" fill="#fff" fill-opacity="0.88"/><rect x="972" y="74" width="15" height="15" rx="3.5" fill="#fff" fill-opacity="0.16"/><rect x="972" y="93" width="15" height="15" rx="3.5" fill="#fff" fill-opacity="1.0"/><rect x="972" y="112" width="15" height="15" rx="3.5" fill="#fff" fill-opacity="1.0"/><rect x="972" y="131" width="15" height="15" rx="3.5" fill="#fff" fill-opacity="0.88"/><rect x="972" y="150" width="15" height="15" rx="3.5" fill="#fff" fill-opacity="0.16"/><rect x="991" y="36" width="15" height="15" rx="3.5" fill="#fff" fill-opacity="0.16"/><rect x="991" y="55" width="15" height="15" rx="3.5" fill="#fff" fill-opacity="0.16"/><rect x="991" y="74" width="15" height="15" rx="3.5" fill="#fff" fill-opacity="0.88"/><rect x="991" y="93" width="15" height="15" rx="3.5" fill="#fff" fill-opacity="0.72"/><rect x="991" y="112" width="15" height="15" rx="3.5" fill="#fff" fill-opacity="0.16"/><rect x="991" y="131" width="15" height="15" rx="3.5" fill="#fff" fill-opacity="0.88"/><rect x="991" y="150" width="15" height="15" rx="3.5" fill="#fff" fill-opacity="0.16"/><rect x="1010" y="36" width="15" height="15" rx="3.5" fill="#fff" fill-opacity="0.16"/><rect x="1010" y="55" width="15" height="15" rx="3.5" fill="#fff" fill-opacity="0.16"/><rect x="1010" y="74" width="15" height="15" rx="3.5" fill="#fff" fill-opacity="0.16"/><rect x="1010" y="93" width="15" height="15" rx="3.5" fill="#fff" fill-opacity="0.16"/><rect x="1010" y="112" width="15" height="15" rx="3.5" fill="#fff" fill-opacity="0.16"/><rect x="1010" y="131" width="15" height="15" rx="3.5" fill="#fff" fill-opacity="0.16"/><rect x="1010" y="150" width="15" height="15" rx="3.5" fill="#fff" fill-opacity="0.16"/><rect x="1029" y="36" width="15" height="15" rx="3.5" fill="#fff" fill-opacity="0.16"/><rect x="1029" y="55" width="15" height="15" rx="3.5" fill="#fff" fill-opacity="1.0"/><rect x="1029" y="74" width="15" height="15" rx="3.5" fill="#fff" fill-opacity="0.88"/><rect x="1029" y="93" width="15" height="15" rx="3.5" fill="#fff" fill-opacity="0.72"/><rect x="1029" y="112" width="15" height="15" rx="3.5" fill="#fff" fill-opacity="0.88"/><rect x="1029" y="131" width="15" height="15" rx="3.5" fill="#fff" fill-opacity="0.88"/><rect x="1029" y="150" width="15" height="15" rx="3.5" fill="#fff" fill-opacity="0.55"/><rect x="1048" y="36" width="15" height="15" rx="3.5" fill="#fff" fill-opacity="0.55"/><rect x="1048" y="55" width="15" height="15" rx="3.5" fill="#fff" fill-opacity="0.72"/><rect x="1048" y="74" width="15" height="15" rx="3.5" fill="#fff" fill-opacity="0.72"/><rect x="1048" y="93" width="15" height="15" rx="3.5" fill="#fff" fill-opacity="0.88"/><rect x="1048" y="112" width="15" height="15" rx="3.5" fill="#fff" fill-opacity="0.72"/><rect x="1048" y="131" width="15" height="15" rx="3.5" fill="#fff" fill-opacity="0.88"/><rect x="1048" y="150" width="15" height="15" rx="3.5" fill="#fff" fill-opacity="0.16"/><rect x="1067" y="36" width="15" height="15" rx="3.5" fill="#fff" fill-opacity="0.16"/><rect x="1067" y="55" width="15" height="15" rx="3.5" fill="#fff" fill-opacity="0.72"/><rect x="1067" y="74" width="15" height="15" rx="3.5" fill="#fff" fill-opacity="0.88"/><rect x="1067" y="93" width="15" height="15" rx="3.5" fill="#fff" fill-opacity="1.0"/><rect x="1067" y="112" width="15" height="15" rx="3.5" fill="#fff" fill-opacity="1.0"/><rect x="1067" y="131" width="15" height="15" rx="3.5" fill="#fff" fill-opacity="1.0"/><rect x="1067" y="150" width="15" height="15" rx="3.5" fill="#fff" fill-opacity="0.88"/><rect x="1086" y="36" width="15" height="15" rx="3.5" fill="#fff" fill-opacity="0.88"/><rect x="1086" y="55" width="15" height="15" rx="3.5" fill="#fff" fill-opacity="0.72"/><rect x="1086" y="74" width="15" height="15" rx="3.5" fill="#fff" fill-opacity="0.88"/><rect x="1086" y="93" width="15" height="15" rx="3.5" fill="#fff" fill-opacity="0.88"/><rect x="1086" y="112" width="15" height="15" rx="3.5" fill="#fff" fill-opacity="0.55"/><rect x="1086" y="131" width="15" height="15" rx="3.5" fill="#fff" fill-opacity="0.88"/><rect x="1086" y="150" width="15" height="15" rx="3.5" fill="#fff" fill-opacity="0.55"/></mask><style>.flow{animation:flow 16.0s linear infinite}@keyframes flow{0%{transform:translateX(0)}100%{transform:translateX(1003px)}}</style></defs><rect width="1200" height="200" fill="#0d1117"/><g mask="url(#grid)"><rect class="flow" x="-905" y="36" width="2006" height="129" fill="url(#flow)"/></g></svg>
